<svg xmlns="http://www.w3.org/2000/svg" viewBox="0 0 300 209" enable-background="new 0 0 300 209">
<path fill="#fff" d="m0,0h300v209h-300z"/>
<path opacity=".1" d="m59.833,0h9v209h-9z"/>
<path opacity=".1" d="m78.833,0h9v209h-9z"/>
<path opacity=".1" d="m97.833,0h9v209h-9z"/>
<path opacity=".1" d="m116.833,0h9v209h-9z"/>
<path opacity=".1" d="m135.833,0h9v209h-9z"/>
<path opacity=".1" d="m154.833,0h9v209h-9z"/>
<path opacity=".1" d="m173.833,0h9v209h-9z"/>
<path opacity=".1" d="m192.833,0h9v209h-9z"/>
<path opacity=".1" d="m211.833,0h9v209h-9z"/>
<path opacity=".1" d="m230.833,0h9v209h-9z"/>
<path opacity=".05" d="m60,30h180v149h-180z"/>
<path opacity=".6" d="m0,0h300v30h-300z"/>
<path opacity=".6" d="m0,179h300v30h-300z"/>
</svg>
