<svg width="732" xmlns="http://www.w3.org/2000/svg" height="225" viewBox="0 0 88.0487 26.9959">
<path fill="#004686" d="m31.0183,26.6077 4.4571-26.1541 7.1287,0-4.46,26.1541-7.1258,0z"/>
<path fill="#004686" d="m63.9988,1.0983c-1.4123-.5308-3.6255-1.0983-6.3893-1.0983c-7.0436-.0007-12.0057,3.5471-12.0477,8.6309c-.0396,3.7578 3.5422,5.8544 6.2463,7.1054c2.7748,1.281 3.7075,2.0992 3.6943,3.2442c-.0175,1.7522-2.2158,2.5538-4.2648,2.5538c-2.8532-.0003-4.3691-.3962-6.7101-1.3727l-.9185-.4164l-1.0005,5.8548c1.6653,.7304 4.744,1.3631 7.9407,1.396c7.4935-.0004 12.358-3.5066 12.4133-8.9352c.027-2.9756-1.8723-5.2393-5.9849-7.1059c-2.4916-1.2105-4.0179-2.0172-4.0017-3.2422c.0001-1.0874 1.2916-2.2496 4.0823-2.2496c2.3314-.0371 4.0197,.4721 5.3353,1.0019l.6391,.3012l.9663-5.6678l0,0z"/>
<path fill="#004686" d="m82.279,.4784h-5.5088c-1.7063,0-2.9834,.4668-3.733,2.17l-10.5868,23.9672h7.4854c0,0 1.2242-3.2221 1.5011-3.9295c.8183,0 8.0898,.0112 9.1293,.0112c.2136,.9153 .8674,3.9189 .8674,3.9189l6.6151-.0006l-5.7697-26.1372m-8.7908,16.8577c.5896-1.507 2.8401-7.3104 2.8401-7.3104c-.0418,.0692 .5851-1.5143 .9452-2.4962l.4824,2.2542c0,0 1.3645,6.2436 1.6498,7.5529l-5.9176-.0004l0,0z"/>
<path fill="#004686" d="m25.0395,.4728l-6.979,17.8351l-.7437-3.624c-1.2991-4.1786-5.3475-8.7046-9.8731-10.9708l6.3817,22.8721l7.5423-.0089l11.2228-26.1034l-7.551,0l0,0z"/>
<path fill="#ef9b11" d="m11.586,.457h-11.495l-.091,.5445c8.9429,2.1643 14.8603,7.3965 17.3167,13.6823l-2.4996-12.0185c-.4314-1.656-1.6831-2.1501-3.2311-2.2083l0,0z"/>
</svg>
