<?xml version="1.0" encoding="utf-8"?>
<!-- Generator: Adobe Illustrator 17.0.0, SVG Export Plug-In . SVG Version: 6.00 Build 0)  -->
<!DOCTYPE svg PUBLIC "-//W3C//DTD SVG 1.1//EN" "http://www.w3.org/Graphics/SVG/1.1/DTD/svg11.dtd">
<svg version="1.1" id="Ebene_1" xmlns="http://www.w3.org/2000/svg" xmlns:xlink="http://www.w3.org/1999/xlink" x="0px" y="0px"
	 width="119.134px" height="40.976px" viewBox="130.667 172.708 119.134 40.976"
	 enable-background="new 130.667 172.708 119.134 40.976" xml:space="preserve">
<g>
	<g>
		<path fill="#FFFFFF" d="M171.529,192.124v1.033h-4.84v-8.052h1.133v7.019H171.529z"/>
		<path fill="#FFFFFF" d="M180.909,192.124v1.033h-4.741v-8.052h4.664v1.034h-3.531v2.453h3.432v1.034h-3.432v2.497h3.608V192.124z"
			/>
		<path fill="#FFFFFF" d="M193.713,185.106v8.052h-0.892l-5.302-6.094v6.094h-1.133v-8.052h0.902c0.513,0.623,1.008,1.21,1.485,1.76
			c0.477,0.551,0.957,1.089,1.441,1.617c0.396,0.447,0.79,0.896,1.183,1.348c0.392,0.451,0.786,0.907,1.182,1.369v-6.094
			L193.713,185.106L193.713,185.106z"/>
		<path fill="#FFFFFF" d="M204.967,185.106v1.034h-2.815v7.018h-1.134v-7.018h-2.815v-1.034H204.967z"/>
		<path fill="#FFFFFF" d="M213.778,192.124v1.033h-4.74v-8.052h4.663v1.034h-3.53v2.453h3.432v1.034h-3.432v2.497h3.607V192.124z"/>
	</g>
	<g>
		<path fill="#FFFFFF" d="M173.144,199.781c0.008,0.26,0.098,0.474,0.27,0.642c0.184,0.185,0.412,0.276,0.684,0.276
			c0.2,0,0.372-0.042,0.516-0.126c0.044-0.024,0.086-0.048,0.126-0.072c0.04-0.024,0.082-0.053,0.126-0.087
			c0.044-0.034,0.094-0.076,0.15-0.126s0.124-0.111,0.204-0.184v0.738c-0.176,0.136-0.354,0.243-0.534,0.321
			c-0.18,0.078-0.384,0.117-0.612,0.117c-0.448,0-0.816-0.15-1.104-0.45s-0.432-0.68-0.432-1.141c0-0.203,0.032-0.396,0.096-0.575
			c0.064-0.181,0.162-0.345,0.294-0.492c0.264-0.296,0.598-0.444,1.002-0.444c0.396,0,0.72,0.139,0.972,0.414
			c0.128,0.141,0.222,0.303,0.282,0.489s0.09,0.419,0.09,0.699h-2.13V199.781z M173.234,199.307h1.35
			c-0.02-0.067-0.045-0.138-0.075-0.21c-0.03-0.071-0.065-0.128-0.105-0.168c-0.112-0.111-0.268-0.168-0.468-0.168
			c-0.24,0-0.43,0.088-0.57,0.265c-0.024,0.031-0.047,0.075-0.069,0.132C173.275,199.213,173.254,199.263,173.234,199.307z"/>
		<path fill="#FFFFFF" d="M179.774,199.757c0.096,0.08,0.167,0.172,0.213,0.276c0.046,0.104,0.069,0.22,0.069,0.348
			c0,0.248-0.102,0.464-0.306,0.648c-0.196,0.172-0.434,0.258-0.714,0.258c-0.22,0-0.41-0.034-0.57-0.103
			c-0.08-0.031-0.15-0.064-0.21-0.099c-0.06-0.034-0.124-0.073-0.192-0.117v-0.647c0.08,0.052,0.148,0.095,0.204,0.129
			s0.106,0.062,0.15,0.084c0.044,0.021,0.084,0.04,0.12,0.054c0.036,0.014,0.072,0.027,0.108,0.039
			c0.144,0.048,0.274,0.072,0.39,0.072c0.076,0,0.14-0.008,0.192-0.024c0.052-0.016,0.1-0.04,0.144-0.072
			c0.072-0.052,0.108-0.128,0.108-0.228c0-0.064-0.028-0.122-0.084-0.174c-0.032-0.032-0.089-0.069-0.171-0.111
			s-0.199-0.089-0.351-0.141c-0.24-0.092-0.43-0.202-0.57-0.33c-0.148-0.145-0.222-0.332-0.222-0.564
			c0-0.252,0.104-0.464,0.312-0.636c0.204-0.16,0.432-0.24,0.684-0.24c0.188,0,0.358,0.03,0.51,0.09
			c0.072,0.028,0.138,0.06,0.198,0.094c0.06,0.033,0.122,0.079,0.186,0.135v0.672c-0.084-0.06-0.154-0.11-0.21-0.15
			s-0.103-0.072-0.141-0.099c-0.038-0.027-0.072-0.047-0.102-0.063s-0.059-0.029-0.087-0.042c-0.116-0.048-0.226-0.071-0.33-0.071
			c-0.084,0-0.153,0.008-0.207,0.023c-0.054,0.017-0.097,0.04-0.129,0.072c-0.072,0.06-0.108,0.13-0.108,0.21
			s0.032,0.145,0.096,0.192c0.052,0.032,0.11,0.063,0.174,0.096c0.064,0.033,0.142,0.064,0.234,0.096
			C179.407,199.517,179.61,199.625,179.774,199.757z"/>
		<path fill="#FFFFFF" d="M185.06,200.482v0.612c-0.096,0.044-0.172,0.076-0.228,0.096c-0.056,0.021-0.106,0.036-0.15,0.049
			c-0.096,0.027-0.204,0.042-0.324,0.042c-0.232,0-0.42-0.066-0.564-0.198c-0.08-0.068-0.136-0.15-0.168-0.246
			c-0.032-0.096-0.048-0.198-0.048-0.306v-1.765h-0.726v-0.534h0.726v-0.689l0.306-0.204h0.282v0.894h0.756v0.534h-0.756v1.566
			c0,0.107,0.005,0.186,0.015,0.234c0.01,0.048,0.019,0.075,0.027,0.084c0.008,0.008,0.027,0.018,0.057,0.029
			c0.03,0.013,0.087,0.019,0.171,0.019c0.052,0,0.114-0.01,0.186-0.03c0.036-0.012,0.081-0.029,0.135-0.051
			C184.811,200.596,184.912,200.551,185.06,200.482z"/>
		<path fill="#FFFFFF" d="M188.618,200.594v0.633h-0.684v-0.633H188.618z"/>
		<path fill="#FFFFFF" d="M194,200.645v0.582h-2.808v-0.294c0.148-0.151,0.279-0.289,0.393-0.411
			c0.114-0.121,0.219-0.236,0.315-0.345c0.192-0.208,0.39-0.46,0.594-0.756c0.076-0.112,0.143-0.223,0.201-0.333
			s0.113-0.221,0.165-0.333c0.092-0.216,0.139-0.426,0.139-0.63c0-0.212-0.074-0.392-0.222-0.54
			c-0.144-0.145-0.328-0.216-0.552-0.216c-0.168,0-0.312,0.036-0.432,0.107c-0.036,0.021-0.072,0.042-0.108,0.066
			c-0.036,0.024-0.078,0.056-0.126,0.096c-0.048,0.04-0.105,0.091-0.171,0.153c-0.066,0.062-0.147,0.137-0.243,0.225v-0.779
			c0.076-0.068,0.151-0.125,0.225-0.172c0.074-0.046,0.151-0.091,0.231-0.135c0.184-0.1,0.402-0.149,0.654-0.149
			c0.376,0,0.695,0.128,0.96,0.384c0.264,0.26,0.396,0.578,0.396,0.954c0,0.28-0.069,0.569-0.21,0.87
			c-0.067,0.147-0.135,0.277-0.201,0.39c-0.065,0.112-0.129,0.21-0.188,0.294c-0.076,0.108-0.15,0.213-0.222,0.315
			c-0.072,0.102-0.148,0.203-0.228,0.303c-0.044,0.06-0.09,0.119-0.138,0.177c-0.048,0.059-0.098,0.117-0.15,0.177H194z"/>
		<path fill="#FFFFFF" d="M199.214,198.629c0.292,0.304,0.438,0.672,0.438,1.104c0,0.44-0.144,0.807-0.432,1.099
			c-0.148,0.152-0.313,0.265-0.495,0.339c-0.182,0.074-0.381,0.111-0.597,0.111c-0.437,0-0.798-0.15-1.086-0.45
			c-0.292-0.304-0.438-0.67-0.438-1.099c0-0.439,0.145-0.808,0.432-1.104c0.148-0.152,0.313-0.265,0.495-0.339
			c0.183-0.074,0.381-0.111,0.598-0.111C198.564,198.179,198.926,198.329,199.214,198.629z M198.776,200.423
			c0.181-0.184,0.271-0.414,0.271-0.69c0-0.268-0.09-0.497-0.271-0.689c-0.184-0.188-0.399-0.282-0.647-0.282
			c-0.252,0-0.469,0.092-0.648,0.276c-0.18,0.191-0.27,0.424-0.27,0.695c0,0.265,0.09,0.492,0.27,0.685
			c0.184,0.188,0.4,0.282,0.648,0.282C198.38,200.699,198.596,200.607,198.776,200.423z"/>
		<path fill="#FFFFFF" d="M203.864,196.835v4.392h-0.611v-3.149l-0.757,0.762l-0.42-0.432l1.177-1.17v-0.402L203.864,196.835
			L203.864,196.835z"/>
		<path fill="#FFFFFF" d="M209.509,199.103v0.546h-0.569v1.578h-0.606v-1.578h-1.872v-0.306l2.143-2.562h0.342v2.321
			L209.509,199.103L209.509,199.103z M207.362,199.103h0.978v-1.182L207.362,199.103z"/>
	</g>
</g>
</svg>
