<svg xmlns="http://www.w3.org/2000/svg" viewBox="0 0 80 80" enable-background="new 0 0 80 80">
<path d="m60.068,29.521c-1.473,.653-3.059,1.095-4.721,1.294c1.698-1.017 3.002-2.627 3.614-4.546c-1.589,.942-3.346,1.625-5.222,1.992c-1.496-1.597-3.635-2.595-6-2.595c-4.537,0-8.218,3.682-8.218,8.22c0,.645 .07,1.271 .211,1.872c-6.832-.343-12.887-3.613-16.944-8.59c-.707,1.218-1.113,2.63-1.113,4.136c0,2.849 1.452,5.366 3.658,6.842c-1.347-.041-2.616-.414-3.725-1.027v.101c0,3.985 2.833,7.307 6.596,8.06c-.69,.193-1.416,.29-2.167,.29c-.529,0-1.046-.049-1.546-.146c1.045,3.265 4.08,5.643 7.678,5.706c-2.813,2.206-6.358,3.52-10.209,3.52c-.664,0-1.319-.037-1.961-.114c3.638,2.33 7.959,3.692 12.601,3.692c15.123,0 23.389-12.524 23.389-23.388c0-.357-.007-.713-.022-1.063c1.607-1.16 3.002-2.608 4.101-4.256"/>
</svg>
