<svg xmlns="http://www.w3.org/2000/svg" version="1" xmlns:xlink="http://www.w3.org/1999/xlink" viewBox="-192 73.9 573.7 415.1"><path fill="#4D4D4D" d="M32.615 377.832h2.375v-16.5h-2.375v-2.25h13.75v4.875H43.99v-2.5h-6.375v6.75h6.75v2.5h-6.75v7h6.875v-2.5h2.375v5h-14.25v-2.375z"/><g transform="matrix(1.25 0 0 -1.25 -43.224 520.749)"><defs><path id="a" d="M-224.6-115.9h710v567.5h-710z"/></defs><clipPath id="b"><use xlink:href="#a" overflow="visible"/></clipPath><g clip-path="url(#b)"><path fill="#4D4D4D" d="M76.9576 117.5494v-1.2c0-1.2 1.4-2 3-2 1.8 0 3 .9 3 2.6 0 2-1.8 2.6-3.7 3.4-2 .8-4.1 1.8-4.1 4.8 0 3.2 2.3 4.6 4.9 4.6 2.3 0 4.6-1 4.6-2.8v-2h-2v1.2c0 1-1.4 1.5-2.6 1.5-1.5 0-2.7-.8-2.7-2.3 0-1.8 1.5-2.4 3.2-3.1 2.2-.9 4.5-1.9 4.5-5 0-3.2-2.4-4.9-5.2-4.9-2.4 0-5 1.2-5 3.6v1.8h2.1zm14.1695-3.2158h1.9v13.1h-3.6v-2.6h-1.9v4.6h13.1v-4.6h-1.9v2.6h-3.6v-13.1h1.9v-1.9h-6v1.9zM102.9 115h2.2v-2.5h-2.2v2.5zm11.6406-1.2426c0 6 7.6 6.8 7.6 11 0 1.8-1.1 2.9-2.7 2.9-2 0-3.2-2.3-3.2-2.3l-1.5 1.2s1.4 3.2 4.8 3.2c2.8 0 4.8-1.9 4.8-4.9 0-5.4-7.5-6.3-7.5-10.4h6.2v2.3h1.9v-4.2h-10.3c-.1.3-.1.8-.1 1.2m22.1431 7.2002c0 3.7-.7 6.6-3.2 6.6s-3.2-2.9-3.2-6.6c0-3.7.7-6.6 3.2-6.6 2.5-.1 3.2 2.8 3.2 6.6m-8.6 0c0 4.9 1.3 8.7 5.4 8.7 4.1 0 5.4-3.9 5.4-8.7 0-4.9-1.3-8.8-5.4-8.8-4.1 0-5.4 3.9-5.4 8.8m13.8461-6.5283h3.4v12s-.2-.4-.7-1l-1.4-1.6-1.3 1.5 3.7 3.9h1.9v-15h3.3v-2h-8.8v2.2zm12.7871 4.5361h5.1v6.6c0 .6.1 1.3.1 1.3h-.1s-.2-.6-.6-1.1l-4.5-6.8zm-2.3-.5l7.1 10.9h2.4v-10.5h2.1v-1.9h-2.1v-4.5h-2.1v4.5h-7.4v1.5z"/><path fill="none" stroke="#4D4D4D" stroke-width="4" stroke-miterlimit="10" d="M20.9609 156.4044h177"/><path fill="#00B9CB" d="M122.7517 196.4623l-13.2-14.2-14 13.5c-1.2 1.2-2.1 2.8-2.3 4.6-.6 4.4 2.4 8.5 6.8 9.1 3.9.6 7.6-1.8 8.8-5.4.9 2.8 3.4 5 6.5 5.5 4.4.6 8.5-2.4 9.1-6.8.4-2.4-.3-4.6-1.7-6.3zm-12.9 45.9h-66.1s0-84.8 33.1-101.4h62.9c33.1 16.5 33.1 101.4 33.1 101.4h-63zm66.1275.0349s0-4-.3-10.5h.3c9.6 0 17.3-7.8 17.3-17.3 0-9.6-7.8-17.3-17.3-17.3-1.4 0-2.8.2-4.2.6-.6-3.4-1.3-6.9-2.1-10.3 2-.5 4.1-.7 6.3-.7 15.4 0 27.8 12.5 27.8 27.8 0 15.2-12.4 27.7-27.8 27.7"/><path fill="#4D4D4D" d="M148.4669 63.6148l-.1.8h-.1v-.8c-.1-.5-.1-1.1-.3-2l-1-4.8 3.5.2-1.4 4.7c-.4.8-.5 1.4-.6 1.9M-1.9203 75.0572l.1.8h-.1c0-.2-.1-.5-.2-.7-.2-.4-.4-1.1-.8-1.8l-2.1-4.4 3.4-.7-.3 4.9c-.1.8 0 1.4 0 1.9m76.1802-10.25v.8h-.1c0-.3-.1-.5-.1-.7-.1-.5-.2-1.1-.5-1.9l-1.6-4.6 3.5-.3-.8 4.8c-.4.8-.3 1.4-.4 1.9"/><path fill="#4D4D4D" d="M249.8479 109.6592c-4-1.1-8.1-2-12.1-3 16.5 24.5 26.2 54 26.2 85.7 0 84.7-68.7 153.4-153.5 153.4s-153.5-68.7-153.5-153.4c0-31.2 9.3-60.2 25.3-84.4-4.2.9-8.2 1.8-11.8 2.6-4.2 7.2-7.9 14.7-10.9 22.5l.3.1h-.3c-7.2 18.3-11.2 38.3-11.2 59.2 0 89.4 72.7 162.2 162.2 162.2 89.4 0 162.2-72.7 162.2-162.2-.1-30.2-8.5-58.5-22.9-82.7m-64.4-12.2c-56.5-6.8-109.8-3.9-152.3 1.7-26.7 22.3-43.7 55.7-43.7 93.2 0 66.8 54.2 120.9 121 120.9s121-54.1 121-120.9c0-38.5-18-72.7-46-94.9m130.5 19.6c4 18.3 6 39.3 6 39.3-25.8-16.8-49.4-22.9-58-24.7 7.4 18.8 11.6 39.2 11.6 60.6 0 91.1-74.1 165.1-165.1 165.1-91.1 0-165.1-74.1-165.1-165.1 0-20.7 3.9-40.5 10.8-58.8-8.7 1.2-31.7 5.8-57.2 22.4 0 0 2.5-20.2 6-39.3 0 0-13.3-14.5-24-25.6 0 0 21-16.2 43.9-15l10.5 49.9 21.3 6.3c2.8-7.2 6.1-14.1 9.8-20.7-17.1 4.1-26.9 7.3-26.9 7.3l-12-63.5c196.7-67.3 366.9 0 366.9 0l-14.1 63.5c-8.8-3-17.6-5.7-26.4-8.1 3.6 6.3 6.8 13 9.6 19.8l22-4.2 10.5-49.9c23-1.2 43.9 15 43.9 15-5.3 5.3-24 25.7-24 25.7"/></g></g><path fill="#FFF" d="M-76.1 446c-8.3-2.1-9.6-8.3-7.1-18.2 2.4-9.7 6.7-15.2 15-13.1 2.6.7 4.5 1.5 5.5 2.2.2.1.2.2.1.5l-.9 2.9c0 .1-.2.3-.4.1-1-.7-2.8-1.5-4.7-2-5.9-1.5-7.9 1.8-10.1 10.5-2.1 8.3-1.8 12.1 4.1 13.6 1.6.4 3.6.6 4.8.6.2 0 .6 0 .5.3l-.4 2.8c0 .3-.2.4-.3.4-1.7.2-4 0-6.1-.6zm31.2-1.8c0-.2-.1-.3-.3-.4l-10-2.1c-.2 0-.4 0-.5.2l-3.6 7.1c-.2.3-.4.4-.7.3l-3.6-.7c-.3-.1-.4-.3-.2-.5 2.5-5.1 11.5-22.4 14.7-27.9.1-.3.4-.4.6-.3l6.4 1.3c.3.1.4.3.4.6.6 7.1 1.7 27.2 1.9 31.4 0 .3-.1.4-.4.4l-4-.8c-.3-.1-.5-.2-.5-.6l-.2-8zm-.3-4c.2 0 .3 0 .4-.3 0-2.7-.3-11-.5-15.4 0-.2-.2-.3-.8-.4-.6-.1-.8-.1-.9.1-2 3.9-5.7 11.4-6.9 13.9 0 .2 0 .3.2.4l8.5 1.7zm17.8-15.7c0-.3.3-.4.5-.4l14.4 2.4c.3 0 .4.3.4.5l-.5 2.8c0 .3-.3.4-.5.4l-10.1-1.7c-.2 0-.3 0-.3.2l-1.7 9.8c0 .2 0 .3.2.3l9.5 1.6c.3 0 .4.3.4.5l-.4 2.5c0 .3-.3.4-.5.4l-9.5-1.6c-.2 0-.3 0-.3.2l-2.1 12.6c0 .3-.3.4-.5.4l-3.5-.6c-.3 0-.4-.3-.4-.5l4.9-29.8zm22.9 3.7c0-.3.2-.4.5-.4l14.9 2c.3 0 .4.2.4.5l-.4 2.8c0 .3-.2.4-.5.4l-10.6-1.4c-.2 0-.3.1-.3.2l-1.2 9c0 .2.1.3.2.3l10 1.3c.3 0 .4.2.4.5l-.3 2.6c0 .3-.2.4-.5.4l-10-1.3c-.2 0-.3.1-.3.2l-1.3 10c0 .2.1.3.2.3l11.4 1.5c.3 0 .4.2.4.5l-.4 2.8c0 .3-.2.4-.5.4l-15.7-2.1c-.3 0-.4-.2-.4-.5l4-30zm44 4.4c6.4.5 9.3 2.7 8.9 8.5-.3 4.3-2.3 5.2-4.3 6.3-.5.2-.6.3-.6.6 0 .2.1.3.4.4 2.5 1.2 4.4 3.2 4 8-.5 6.1-4.7 7.9-9.2 7.5l-10.5-.8c-.3 0-.4-.2-.4-.5l2.4-30.3c0-.3.2-.4.5-.4l8.8.7zM36 460.3c5.2.4 6.9-.3 7.3-4.9.4-4.7-2.4-5.8-6.2-6.1l-3.4-.3c-.3 0-.4.1-.4.4l-.8 10.3c0 .2 0 .3.2.3l3.3.3zm0-14.1c4.5.4 7.4.1 7.8-5.1.3-3.5-.8-4.9-5.6-5.2l-3.5-.3c-.2 0-.3.1-.3.3l-.8 9.8c0 .3.1.4.3.4l2.1.1zm37.8-11.7l3.5.1c.3 0 .3.2.2.5-2 3.8-6.5 11.1-8.8 14.6-1.4 2.2-1.8 2.8-1.8 3.5l-.5 11.8c0 .3-.2.5-.5.4l-3.6-.1c-.3 0-.5-.2-.4-.5l.5-11.9c0-.7-.2-1.2-1.3-3.3-1.9-3.8-6.4-12.9-7.4-15.5-.1-.3.1-.5.3-.4l3.9.2c.3 0 .5.2.6.5 1.3 3.3 4.4 10.4 5.8 13.5.3.7.4.8.7.8.3 0 .3-.1.8-.8 2-2.8 5.6-9.6 7.2-12.9.2-.4.5-.5.8-.5zm24.2 4.3c0-.2-.1-.3-.3-.3l-6.5.1c-.3 0-.5-.2-.5-.5v-2.9c0-.3.2-.5.5-.5l18.1-.1c.3 0 .5.2.5.5v2.9c0 .3-.2.5-.5.5l-6.5.1c-.2 0-.3.1-.3.3l.2 26.8c0 .3-.2.5-.5.5h-3.6c-.3 0-.5-.2-.5-.5l-.1-26.9zm34.7-4.6c0-.3.2-.5.4-.5l3.6-.2c.3 0 .5.2.5.4l1.4 30.3c0 .3-.2.5-.4.5l-3.6.2c-.3 0-.5-.2-.5-.4l-.6-13.6c0-.2-.1-.3-.3-.3l-11.6.5c-.2 0-.3.1-.3.3l.6 13.6c0 .3-.2.5-.4.5l-3.6.2c-.3 0-.5-.2-.5-.4L116 435c0-.3.2-.5.4-.5l3.6-.2c.3 0 .5.2.5.4l.6 12.6c0 .2.1.3.3.3l11.6-.5c.2 0 .3-.1.3-.3l-.6-12.6zm13.1-.8c0-.3.1-.5.4-.5l15-1.2c.3 0 .5.1.5.4l.2 2.8c0 .3-.1.5-.4.5l-10.7.9c-.2 0-.3.1-.3.3l.7 9c0 .2.1.3.3.3l10.1-.8c.3 0 .5.1.5.4l.2 2.6c0 .3-.1.5-.4.5l-10.1.8c-.2 0-.3.1-.3.3l.8 10c0 .2.1.3.3.3l11.5-.9c.3 0 .5.1.5.4l.2 2.8c0 .3-.1.5-.4.5l-15.8 1.3c-.3 0-.5-.1-.5-.4l-2.3-30.3zm34.8-3.4c0-.3.1-.5.4-.5l3.6-.5c.3 0 .5.1.5.4l3.4 26.6c0 .2.1.3.3.2l8.3-1.1c.3 0 .5.1.5.4l.4 2.8c0 .3-.1.5-.4.5l-12.5 1.6c-.3 0-.5-.1-.5-.4l-4-30zm39.2 17.2c-.1-.2-.2-.3-.4-.3l-10.1 1.7c-.2 0-.4.2-.4.4l-.8 7.9c-.1.4-.2.5-.5.6l-3.6.6c-.3 0-.4-.1-.4-.4.5-5.7 2.7-25 3.6-31.4 0-.3.2-.5.5-.5l6.4-1.1c.3-.1.5.1.6.4 3.1 6.4 11.4 24.8 13.1 28.6.1.3 0 .5-.2.5l-4 .7c-.3.1-.5 0-.7-.4l-3.1-7.3zm-1.7-3.6c.2 0 .3-.1.3-.4-1-2.5-4.3-10.2-6.1-14.2-.1-.2-.3-.2-.9-.1-.6.1-.8.2-.8.4-.5 4.4-1.2 12.7-1.4 15.4 0 .2.1.3.4.3l8.5-1.4zm20.1-10.1c1.5-3.4 4.7-11.3 5.7-14 .1-.2.1-.5.4-.6l4-.8c.3-.1.4.1.5.4-1.2 3-5 11.4-6.6 15-.3.8-.3 1-.3 1.2.1.3.3.6.7 1 3 2.8 11.2 10.9 12.6 12.5.1.3 0 .5-.3.6l-4 .8c-.4.1-.7-.1-.8-.3-2-2-8.5-8.9-11.3-11.6-.5-.5-.8-.4-2-.2-.2 0-.3.1-.2.3l2.8 13.7c.1.3-.1.5-.4.5l-3.5.7c-.3.1-.5-.1-.5-.4l-6.1-29.7c-.1-.3.1-.5.4-.5l3.5-.7c.3-.1.5.1.5.4l2.5 12.4c0 .2.3.2.5.2 1.3-.4 1.8-.7 1.9-.9zm16.9-16.5c-.1-.3.1-.5.3-.6l14.6-3.6c.3-.1.5.1.6.3l.7 2.8c.1.3-.1.5-.3.6l-10.4 2.5c-.2 0-.2.2-.2.3l2.2 8.8c0 .2.2.2.3.2l9.8-2.4c.3-.1.5.1.6.3l.6 2.5c.1.3-.1.5-.3.6l-9.8 2.4c-.2 0-.2.2-.2.3l2.4 9.8c0 .2.2.2.3.2l11.2-2.7c.3-.1.5.1.6.3l.7 2.8c.1.3-.1.5-.3.6l-15.4 3.8c-.3.1-.5-.1-.6-.3l-7.4-29.5z"/></svg>