<svg xmlns="http://www.w3.org/2000/svg" viewBox="0 0 300 209" enable-background="new 0 0 300 209">
<path fill="#fff" d="m0,0h300v209h-300z"/>
<path opacity=".1" d="m59.833,0h9v209h-9z"/>
<path opacity=".1" d="m78.833,0h9v209h-9z"/>
<path opacity=".1" d="m97.833,0h9v209h-9z"/>
<path opacity=".1" d="m116.833,0h9v209h-9z"/>
<path opacity=".1" d="m135.833,0h9v209h-9z"/>
<path opacity=".1" d="m154.833,0h9v209h-9z"/>
<path opacity=".1" d="m173.833,0h9v209h-9z"/>
<path opacity=".1" d="m192.833,0h9v209h-9z"/>
<path opacity=".1" d="m211.833,0h9v209h-9z"/>
<path opacity=".1" d="m230.833,0h9v209h-9z"/>
<path d="m145.208,94.899c.438-.146 .924-.219 1.46-.219h7.884c.486,0 .73,.244 .73,.73v40.369c0,.292 .146,.438 .438,.438h8.322c.486,0 .729,.244 .729,.73v6.643c0,.487-.243,.73-.729,.73h-28.032c-.487,0-.729-.243-.729-.73v-6.643c0-.486 .242-.73 .729-.73h9.417c.292,0 .438-.146 .438-.438v-32.558c-.099-.243-.244-.365-.438-.365l-10.146,2.19c-.487,0-.73-.243-.73-.73v-6.57c0-.389 .243-.657 .73-.803l9.927-2.044z"/>
<path opacity=".6" d="m0,0h300v30h-300z"/>
</svg>
