<?xml version="1.0" encoding="utf-8"?>
<!-- Generator: Adobe Illustrator 17.0.0, SVG Export Plug-In . SVG Version: 6.00 Build 0)  -->
<!DOCTYPE svg PUBLIC "-//W3C//DTD SVG 1.1//EN" "http://www.w3.org/Graphics/SVG/1.1/DTD/svg11.dtd">
<svg version="1.1" id="Ebene_1" xmlns="http://www.w3.org/2000/svg" xmlns:xlink="http://www.w3.org/1999/xlink" x="0px" y="0px"
	 width="50px" height="50px" viewBox="0 0 50 50" enable-background="new 0 0 50 50" xml:space="preserve">
<path fill="#6F6F6E" d="M25,5.355c-10.469,0-18.986,8.516-18.986,18.985S14.531,43.328,25,43.328s18.986-8.518,18.986-18.988
	S35.469,5.355,25,5.355z M25,40.628c-4.767,0-9.062-2.059-12.042-5.335c0.122-0.357,0.937-2.71,1.479-3.792
	c0.586-1.173,0.781-1.302,2.084-2.475c1.302-1.172-2.605-1.693-3.517-2.605c-0.912-0.912-1.368-0.912-2.409-1.738
	c-0.78-0.618-1.232,2.12-1.41,3.537c-0.306-1.244-0.471-2.542-0.471-3.88c0-3.456,1.086-6.66,2.929-9.301
	c-0.519,1.609-0.984,3.953,1.035,3.241c2.214-0.783,2.409-1.694,2.409-1.694l1.302-2.279c0,0,0.195,3.19,0.457,3.646
	c0.261,0.457,1.302,1.76,1.693-0.064c0.718-3.352,0.84-4.298,2.077-4.298c1.237,0,3.784-0.978,4.046,2.019
	c0.26,2.996-0.261,1.238-1.89,2.019c-1.627,0.781-2.019,3.516-0.521,3.842c1.498,0.326,4.885,1.693,4.885,1.693l1.693,1.89
	l0.522,2.019c0,0,0.325,2.279,0.325,2.474c0,0.195,0,2.085,0,2.085s0.066,4.102,1.563,3.126c1.498-0.977,5.6-7.359,4.755-9.769
	c-0.847-2.409-0.912-2.671,0.65-3.516c1.563-0.847,2.67-1.889,2.605-3.061c-0.046-0.822,0.038-1.323,0.047-1.863
	c1.267,2.316,1.989,4.972,1.989,7.793C41.286,33.322,33.98,40.628,25,40.628z"/>
</svg>
