<svg xmlns="http://www.w3.org/2000/svg" viewBox="581.206 382.674 2657.198 771.016" enable-background="new 581.206 382.674 2657.198 771.016">
<path fill="#e75a10" d="m836.324,671.808-255.118-192.756 0-96.378 255.118,192.756z"/>
<path fill="#e75a10" d="m963.88,1057.315-382.674-289.129 0,96.379 382.674,289.125z"/>
<path fill="#f19200" d="m836.324,575.43-255.118,192.756 0,96.379 255.118-192.757z"/>
<path fill="#ffffff" d="m1230.739,714.294c-6.721-1.12-13.908-1.68-21.561-1.68c-2.24,0-4.948,.14-8.12,.42c-3.176,.28-5.88,.888-8.12,1.82c-1.308,.748-1.96,1.776-1.96,3.08v115.641c0,2.239-1.027,3.172-3.079,2.8h-30.801c-1.868,0-2.8-.932-2.8-2.8v-141.12c0-1.492 .932-2.424 2.8-2.8c7.092-1.492 15.4-2.844 24.92-4.06c9.521-1.212 18.761-1.82 27.721-1.82c4.663,0 8.68,.096 12.04,.28c3.359,.188 6.903,.468 10.64,.84c1.12,.188 1.68,.936 1.68,2.24l-1.399,25.76c-.001,1.12-.658,1.587-1.961,1.399z"/>
<path fill="#ffffff" d="m1302.415,686.575c1.863,0 2.8,.936 2.8,2.8v92.96c0,5.417 .42,9.896 1.26,13.44c.84,3.548 2.284,6.348 4.34,8.4c2.052,2.057 4.944,3.548 8.681,4.48c3.731,.937 8.399,1.4 14,1.4c7.279,0 13.623-.56 19.04-1.68c1.68-.56 2.52-1.492 2.52-2.8v-116.2c0-1.864 .932-2.8 2.8-2.8h30.8c1.864,0 2.801,.936 2.801,2.8v141.121c0,1.496-.937,2.428-2.801,2.8c-7.656,1.496-16.659,2.848-27.02,4.06s-19.928,1.82-28.7,1.82c-12.32,0-22.588-.937-30.8-2.8c-8.217-1.864-14.84-4.9-19.88-9.101c-5.04-4.2-8.588-9.752-10.641-16.66c-2.056-6.904-3.079-15.492-3.079-25.76v-95.48c0-1.864 .932-2.8 2.8-2.8l31.079,0z"/>
<path fill="#ffffff" d="m1465.374,739.774c0,1.68 1.681,2.52 5.04,2.52c2.984,0 4.853-.372 5.601-1.12c2.8-3.731 5.88-7.98 9.24-12.74c3.359-4.76 6.672-9.52 9.939-14.28c3.264-4.76 6.344-9.332 9.24-13.72c2.892-4.384 5.363-8.164 7.42-11.34c.56-.932 1.12-1.584 1.68-1.96c.561-.372 1.4-.56 2.521-.56h37.24c2.983,0 4.104,.84 3.359,2.52c-1.12,1.68-3.548,4.948-7.28,9.8c-3.735,4.856-8.027,10.36-12.88,16.52c-4.855,6.16-9.939,12.46-15.26,18.9s-10.036,12.18-14.14,17.22c-1.12,1.12-1.681,2.24-1.681,3.36c0,.748 .744,2.056 2.24,3.92c2.984,4.108 7.044,9.848 12.18,17.22c5.133,7.376 10.265,14.888 15.4,22.54c5.132,7.656 9.892,14.748 14.28,21.28c4.384,6.536 7.323,11.017 8.819,13.44c.372,.748 .464,1.448 .28,2.1c-.188,.656-1.308,.98-3.359,.98h-35.561c-1.68,0-2.988-.744-3.92-2.24c-2.24-4.104-5.088-8.96-8.54-14.56c-3.456-5.6-7.048-11.384-10.78-17.36c-3.736-5.972-7.328-11.712-10.779-17.22c-3.457-5.504-6.396-10.124-8.82-13.86c-.376-.744-1.26-1.4-2.66-1.96c-1.399-.56-2.848-.84-4.34-.84c-2.057,0-3.316,.188-3.78,.56c-.468,.376-.7,1.028-.7,1.96v62.721c0,1.868-.936,2.8-2.8,2.8h-30.8c-1.868,0-2.8-.932-2.8-2.8v-200.2c0-1.864 .932-2.8 2.8-2.8h30.8c1.864,0 2.8,.936 2.8,2.8v106.399h.001z"/>
<path fill="#ffffff" d="m1590.53,836.375c-1.868,0-2.8-.932-2.8-2.8v-24.081c0-2.052 1.212-4.664 3.64-7.84l61.04-78.68c.932-1.304 1.492-2.332 1.681-3.08c.184-.744 .279-1.584 .279-2.52c0-1.12-.236-1.82-.7-2.1c-.468-.28-1.26-.42-2.38-.42h-56.84c-1.868,0-2.8-.932-2.8-2.8v-22.68c0-1.864 .932-2.8 2.8-2.8h97.72c2.053,0 3.08,1.028 3.08,3.08v22.12c0,1.308-.188,2.896-.56,4.76c-.376,1.868-1.028,3.456-1.96,4.76l-62.44,79.52c-.56,.748-.888,1.448-.979,2.1c-.097,.656-.141,1.448-.141,2.38c0,1.496 .744,2.24 2.24,2.24h63.561c1.863,0 2.8,.936 2.8,2.8v23.241c0,1.868-.937,2.8-2.8,2.8h-104.441z"/>
<path fill="#ffffff" d="m1764.967,686.575c1.863,0 2.8,.936 2.8,2.8v92.96c0,5.417 .42,9.896 1.26,13.44c.84,3.548 2.284,6.348 4.34,8.4c2.052,2.057 4.944,3.548 8.681,4.48c3.731,.937 8.399,1.4 14,1.4c7.279,0 13.623-.56 19.04-1.68c1.68-.56 2.52-1.492 2.52-2.8v-116.2c0-1.864 .932-2.8 2.8-2.8h30.8c1.864,0 2.801,.936 2.801,2.8v141.121c0,1.496-.937,2.428-2.801,2.8c-7.656,1.496-16.659,2.848-27.02,4.06s-19.928,1.82-28.7,1.82c-12.32,0-22.588-.937-30.8-2.8c-8.217-1.864-14.84-4.9-19.88-9.101c-5.04-4.2-8.588-9.752-10.641-16.66c-2.056-6.904-3.079-15.492-3.079-25.76v-95.48c0-1.864 .932-2.8 2.8-2.8l31.079,0z"/>
<path fill="#ffffff" d="m1927.925,739.774c0,1.68 1.681,2.52 5.04,2.52c2.984,0 4.853-.372 5.601-1.12c2.8-3.731 5.88-7.98 9.24-12.74c3.359-4.76 6.672-9.52 9.939-14.28c3.264-4.76 6.344-9.332 9.24-13.72c2.892-4.384 5.363-8.164 7.42-11.34c.56-.932 1.12-1.584 1.68-1.96c.561-.372 1.4-.56 2.521-.56h37.24c2.983,0 4.104,.84 3.359,2.52c-1.12,1.68-3.548,4.948-7.28,9.8c-3.735,4.856-8.027,10.36-12.88,16.52c-4.855,6.16-9.939,12.46-15.26,18.9s-10.036,12.18-14.14,17.22c-1.12,1.12-1.681,2.24-1.681,3.36c0,.748 .744,2.056 2.24,3.92c2.984,4.108 7.044,9.848 12.18,17.22c5.133,7.376 10.265,14.888 15.4,22.54c5.132,7.656 9.892,14.748 14.28,21.28c4.384,6.536 7.323,11.017 8.819,13.44c.372,.748 .464,1.448 .28,2.1c-.188,.656-1.308,.98-3.359,.98h-35.561c-1.68,0-2.988-.744-3.92-2.24c-2.24-4.104-5.088-8.96-8.54-14.56c-3.456-5.6-7.048-11.384-10.78-17.36c-3.736-5.972-7.328-11.712-10.779-17.22c-3.457-5.504-6.396-10.124-8.82-13.86c-.376-.744-1.26-1.4-2.66-1.96c-1.399-.56-2.848-.84-4.34-.84c-2.057,0-3.316,.188-3.78,.56c-.468,.376-.7,1.028-.7,1.96v62.721c0,1.868-.936,2.8-2.8,2.8h-30.8c-1.868,0-2.8-.932-2.8-2.8v-200.2c0-1.864 .932-2.8 2.8-2.8h30.8c1.864,0 2.8,.936 2.8,2.8v106.399h.001z"/>
<path fill="#ffffff" d="m1148.715,1032.244c-.495-.165-.99-.33-.99-1.155l.66-10.56c0-.495 .66-.825 1.319-.66c5.775,1.155 12.54,1.65 17.984,1.65c14.189,0 16.5-1.485 16.5-11.88c0-6.104-3.465-9.239-16.995-18.974c-13.529-9.735-18.644-13.859-18.644-24.584c0-16.995 7.59-23.76 29.203-23.76c7.755,0 14.354,.495 18.81,1.32c.495,.165 .99,.33 .99,1.155l-.66,10.56c0,.494-.66,.824-1.32,.659c-4.289-.659-10.56-1.484-16.004-1.484c-12.21,0-16.334,.825-16.334,9.899c0,7.26 3.63,9.734 17.159,18.645c14.189,9.404 18.809,15.839 18.809,25.738c0,19.47-8.744,25.079-28.873,25.079c-7.754,.002-16.499-.659-21.614-1.648z"/>
<path fill="#ffffff" d="m1220.983,926.648c-.99,0-1.65-.66-1.65-1.65v-13.859c0-.99 .66-1.649 1.65-1.649h14.024c.989,0 1.649,.659 1.649,1.649v13.859c0,.99-.66,1.65-1.649,1.65h-14.024zm.659,105.596c-.989,0-1.649-.66-1.649-1.65v-84.972c0-.989 .66-1.649 1.649-1.649h12.54c.99,0 1.649,.66 1.649,1.649v84.972c0,.99-.659,1.65-1.649,1.65h-12.54z"/>
<path fill="#ffffff" d="m1326.249,1030.594c0,.99-.659,1.65-1.649,1.65h-12.54c-.989,0-1.649-.66-1.649-1.65v-66.162c0-7.92-6.93-9.899-16.334-9.899c-5.445,0-12.54,.495-16.17,1.319c-1.154,.33-1.649,.66-1.649,1.815v72.927c0,.99-.66,1.65-1.65,1.65h-12.539c-.99,0-1.65-.66-1.65-1.65v-83.156c0-.99 .66-1.485 1.65-1.65c5.444-1.154 22.438-3.465 32.174-3.465c9.569,0 18.313,.66 24.089,4.29c.33,.165 .989,.165 1.319,0c8.745-3.3 19.635-4.29 27.719-4.29c23.76,0 31.02,11.88 31.02,28.049v60.223c0,.99-.66,1.65-1.65,1.65h-12.539c-.99,0-1.65-.66-1.65-1.65v-58.077c0-13.2-6.27-17.984-19.139-17.984c-4.785,0-11.55,.495-15.18,1.319c-1.155,.33-1.98,.66-1.98,1.815v72.926h-.003z"/>
<path fill="#ffffff" d="m1472.273,987.201c0,31.349-10.89,45.043-39.434,45.043c-4.454,0-11.384-.495-13.364-.495c-.989,0-1.319,.33-1.319,1.155v27.389c0,.99-.66,1.649-1.65,1.649h-12.539c-.99,0-1.65-.659-1.65-1.649v-112.855c0-.99 .66-1.485 1.65-1.65c7.26-1.649 17.819-3.465 27.389-3.465c32.833-.001 40.917,11.054 40.917,44.878zm-54.117,30.359c0,1.155 .33,1.814 1.649,1.979c3.96,.495 7.59,.66 11.88,.66c18.149,0 24.089-5.609 24.089-33.163c0-26.564-4.785-32.504-24.419-32.504c-5.445,0-9.569,.495-11.715,1.319c-.989,.33-1.484,1.155-1.484,2.146v59.563z"/>
<path fill="#ffffff" d="m1513.689,1033.894c-12.374,0-18.149-4.125-18.149-19.469v-101.801c0-.99 .66-1.65 1.65-1.65h12.539c.99,0 1.65,.66 1.65,1.65v102.296c0,4.949 2.145,6.93 6.765,6.93h7.095c.825,0 1.649,.33 1.649,1.649l-.33,6.93c0,.99-.659,1.98-1.484,2.146c-3.465,.823-6.93,1.319-11.385,1.319z"/>
<path fill="#ffffff" d="m1569.787,1030.429h-3.96c-2.64,0-3.795-1.154-4.125-2.145c-7.26-19.964-22.273-72.268-24.254-82.827c0-.989 .33-1.484 1.485-1.484h13.694c.99,0 1.319,.66 1.484,1.484l2.641,11.385c4.784,20.624 11.384,47.354 15.839,60.883c.165,.825 .825,.99 2.311,.99c1.484,0 2.145,0 2.475-1.155c5.279-16.005 13.199-51.148 17.984-72.103c.165-.989 .989-1.484 2.31-1.484h12.375c.989,0 1.319,.825 1.319,1.649c-1.979,10.89-18.645,67.978-24.584,85.137c-8.414,24.419-16.169,31.184-35.804,31.184c-5.939,0-8.084-.33-8.249-2.475l-.33-6.6c.165-1.815 .66-1.98 2.145-1.98c17.324,0 21.779-2.31 27.059-16.829c.66-1.814 .66-2.31 .66-2.97s-.825-.66-2.475-.66z"/>
<path fill="#ffffff" d="m1751.283,987.201c0,31.349-10.89,45.043-39.434,45.043c-4.454,0-11.384-.495-13.364-.495c-.989,0-1.319,.33-1.319,1.155v27.389c0,.99-.66,1.649-1.65,1.649h-12.539c-.99,0-1.65-.659-1.65-1.649v-112.855c0-.99 .66-1.485 1.65-1.65c7.26-1.649 17.819-3.465 27.389-3.465c32.833-.001 40.917,11.054 40.917,44.878zm-54.117,30.359c0,1.155 .33,1.814 1.649,1.979c3.96,.495 7.59,.66 11.88,.66c18.149,0 24.089-5.609 24.089-33.163c0-26.564-4.785-32.504-24.419-32.504c-5.445,0-9.569,.495-11.715,1.319c-.989,.33-1.484,1.155-1.484,2.146v59.563z"/>
<path fill="#ffffff" d="m1833.123,1024.984c-5.609,6.27-14.024,8.909-27.059,8.909c-13.2,0-20.954-2.64-26.564-8.909c-5.939-6.93-10.395-21.119-10.395-37.618c0-16.665 4.29-29.699 10.395-36.464c5.61-6.435 14.024-8.58 26.895-8.58c13.199,0 21.119,2.311 26.729,8.58c5.939,6.93 10.064,19.799 10.064,36.464c-.001,16.499-4.126,30.689-10.065,37.618zm-41.744-7.424c2.64,2.805 6.104,3.96 14.685,3.96c9.074,0 12.374-1.155 14.849-3.96c4.125-4.455 6.105-16.664 6.105-30.193c0-13.695-1.98-24.42-6.105-28.874c-2.475-2.805-5.774-3.96-14.519-3.96c-8.91,0-12.375,1.155-15.015,3.96c-4.125,4.454-6.104,15.179-6.104,28.874c0,13.529 1.979,25.738 6.104,30.193z"/>
<path fill="#ffffff" d="m1963.966,1032.244h-21.449c-.66,0-1.155-.33-1.32-1.32c-3.63-14.85-11.715-50.323-16.169-72.102c-.165-.825-.495-.99-1.65-.99c-1.319,0-1.649,.165-1.979,.99c-4.62,21.778-13.694,57.912-17.654,72.102c-.33,.99-.825,1.32-1.815,1.32h-20.954c-.66,0-1.154-.66-1.319-1.32c-5.28-17.159-19.8-74.577-21.944-85.467c0-.989 .33-1.484 1.155-1.484h14.519c.825,0 .99,.66 1.155,1.484c3.96,20.954 11.88,56.428 15.84,72.598c.165,.825 .824,.99 1.979,.99c1.32,0 1.815-.165 1.979-.99c4.125-16.17 11.715-51.644 15.84-72.598c.33-.989 .825-1.484 1.649-1.484h22.439c.825,0 1.32,.66 1.485,1.484c4.125,20.954 12.209,56.428 16.004,72.598c.165,.825 .825,.99 1.98,.99c1.319,0 1.649-.165 1.979-.99c4.29-16.17 12.869-51.644 17.159-72.598c.33-.989 .825-1.484 1.65-1.484h13.529c.66,0 .99,.825 .99,1.649c-2.146,10.725-17.819,68.143-23.265,85.302c-.328,.99-.658,1.32-1.813,1.32z"/>
<path fill="#ffffff" d="m2043.828,1033.894c-32.834,0-40.589-20.624-40.589-45.868c0-26.068 9.569-45.703 37.124-45.703c27.224,0 33.493,16.335 33.493,38.278v4.62c0,6.6-1.485,8.085-4.29,8.085h-49.003c-.825,0-.99,.33-.99,1.154c0,21.944 10.065,27.225 27.555,27.225c7.754,0 16.169-2.146 21.284-4.29c.329,0 .659-.165 .824-.165c.825,0 1.32,.33 1.65,.99l.66,8.744c0,.165 0,.33 0,.495c0,.66-.33,1.32-1.155,1.65c-7.095,3.135-16.004,4.785-26.563,4.785zm-23.265-52.138h36.629c1.484,0 1.979-.33 1.979-5.774c0-14.85-4.455-21.779-18.809-21.779c-16.83,0-20.79,11.22-20.79,26.398c.001,.66 .166,1.155 .991,1.155z"/>
<path fill="#ffffff" d="m2098.607,945.787c7.26-1.649 16.664-3.465 26.233-3.465c5.115,0 11.55,.165 15.18,.825c.825,.165 .99,.495 .99,1.32l-.825,10.56c0,.495-.33,.824-1.155,.66c-4.125-.66-8.579-.99-14.024-.99c-2.97,0-8.579,.33-11.055,1.649c-.989,.495-1.154,1.155-1.154,1.98v72.267c0,1.155-.825,1.815-1.98,1.65h-12.209c-.99,0-1.65-.66-1.65-1.65v-83.156c-.001-.99 .659-1.485 1.649-1.65z"/>
<path fill="#ffffff" d="m2190.674,942.982c0,.66 .33,.99 .99,.99h16.994c.99,0 1.65,.66 1.65,1.649v8.91c0,.99-.66,1.649-1.65,1.649h-16.994c-.66,0-.99,.33-.99,.99v73.422c0,.99-.66,1.65-1.649,1.65h-12.54c-.989,0-1.649-.66-1.649-1.65v-73.422c0-.66-.33-.99-.99-.99h-13.199c-.99,0-1.65-.659-1.65-1.649v-8.91c0-.989 .66-1.649 1.65-1.649h13.199c.66,0 .99-.33 .99-.99v-8.085c0-8.414 1.979-23.924 25.738-23.924c6.271,0 10.89,.825 12.045,1.155c.99,.33 1.32,1.155 1.155,2.145l-.825,8.085c-.33,1.155-.99,1.155-1.979,.99c-2.146-.495-5.445-.99-9.24-.99c-8.909,0-11.055,5.939-11.055,13.034v7.59h-.001z"/>
<path fill="#ffffff" d="m2244.132,943.973c.99,0 1.65,.66 1.65,1.649v55.604c0,15.509 3.96,19.964 20.624,19.964c4.95,0 10.064-.495 13.694-1.32c1.155-.33 1.65-.66 1.65-1.814v-72.433c0-.989 .66-1.649 1.649-1.649h12.54c.989,0 1.649,.66 1.649,1.649v83.157c0,.989-.66,1.484-1.649,1.649c-8.91,1.815-21.284,3.465-29.369,3.465c-29.039,0-36.629-6.93-36.629-31.018v-57.253c0-.989 .66-1.649 1.65-1.649h12.541v-.001z"/>
<path fill="#ffffff" d="m2339.666,1033.894c-12.374,0-18.149-4.125-18.149-19.469v-101.801c0-.99 .66-1.65 1.65-1.65h12.539c.99,0 1.65,.66 1.65,1.65v102.296c0,4.949 2.145,6.93 6.765,6.93h7.095c.825,0 1.649,.33 1.649,1.649l-.33,6.93c0,.99-.659,1.98-1.484,2.146c-3.466,.823-6.93,1.319-11.385,1.319z"/>
<path fill="#ffffff" d="m2519.18,1032.244h-21.449c-.66,0-1.155-.33-1.32-1.32c-3.63-14.85-11.715-50.323-16.169-72.102c-.165-.825-.495-.99-1.65-.99c-1.319,0-1.649,.165-1.979,.99c-4.62,21.778-13.694,57.912-17.654,72.102c-.33,.99-.825,1.32-1.815,1.32h-20.954c-.66,0-1.154-.66-1.319-1.32c-5.28-17.159-19.8-74.577-21.944-85.467c0-.989 .33-1.484 1.155-1.484h14.519c.825,0 .99,.66 1.155,1.484c3.96,20.954 11.88,56.428 15.84,72.598c.165,.825 .824,.99 1.979,.99c1.32,0 1.815-.165 1.979-.99c4.125-16.17 11.715-51.644 15.84-72.598c.33-.989 .825-1.484 1.65-1.484h22.438c.825,0 1.32,.66 1.485,1.484c4.125,20.954 12.209,56.428 16.004,72.598c.165,.825 .825,.99 1.98,.99c1.319,0 1.649-.165 1.979-.99c4.29-16.17 12.869-51.644 17.159-72.598c.33-.989 .825-1.484 1.65-1.484h13.529c.66,0 .99,.825 .99,1.649c-2.146,10.725-17.819,68.143-23.265,85.302c-.328,.99-.659,1.32-1.813,1.32z"/>
<path fill="#ffffff" d="m2599.042,1033.894c-32.834,0-40.589-20.624-40.589-45.868c0-26.068 9.569-45.703 37.124-45.703c27.224,0 33.493,16.335 33.493,38.278v4.62c0,6.6-1.485,8.085-4.29,8.085h-49.003c-.825,0-.99,.33-.99,1.154c0,21.944 10.065,27.225 27.555,27.225c7.754,0 16.169-2.146 21.284-4.29c.329,0 .659-.165 .824-.165c.825,0 1.32,.33 1.65,.99l.66,8.744c0,.165 0,.33 0,.495c0,.66-.33,1.32-1.155,1.65c-7.095,3.135-16.004,4.785-26.563,4.785zm-23.265-52.138h36.629c1.484,0 1.979-.33 1.979-5.774c0-14.85-4.455-21.779-18.809-21.779c-16.83,0-20.79,11.22-20.79,26.398c.001,.66 .166,1.155 .991,1.155z"/>
<path fill="#ffffff" d="m2651.676,1030.429c-1.155-.33-1.485-.66-1.485-1.649v-116.156c0-.99 .66-1.65 1.65-1.65h12.539c.99,0 1.65,.66 1.65,1.65v29.863c0,.825 .33,1.155 1.319,1.155c1.98,0 8.91-1.32 15.18-1.32c28.049,0 37.618,11.055 37.618,42.403c0,33.824-8.084,49.168-40.753,49.168c-11.054,.001-20.458-1.484-27.718-3.464zm14.355-11.549c0,.989 .165,1.484 1.154,1.814c2.641,.825 8.415,1.155 12.045,1.155c21.614,0 24.419-8.085 24.419-35.474c0-25.904-5.115-31.844-23.264-31.844c-5.61,0-10.725,.825-13.035,1.484c-.989,.33-1.319,1.32-1.319,2.311v60.554z"/>
<path fill="#ffffff" d="m2777.569,987.036c0-31.349 12.045-44.714 40.094-44.714c5.609,0 10.89,1.155 12.869,1.155c.99,0 1.155-.66 1.155-1.485v-29.368c0-.99 .659-1.65 1.649-1.65h12.54c.989,0 1.649,.66 1.649,1.65v115.825c0,.99-.66,1.649-1.649,1.979c-6.765,1.815-16.335,3.465-27.39,3.465c-32.667,.001-40.917-13.034-40.917-46.857zm54.118-29.039c0-.825-.33-1.65-1.155-1.98c-2.31-.824-7.92-1.484-12.539-1.484c-18.149,0-23.925,4.949-23.925,32.504c0,27.389 2.806,34.813 24.419,34.813c3.63,0 8.91-.165 11.715-1.155c1.32-.495 1.485-1.155 1.485-1.814v-60.884z"/>
<path fill="#ffffff" d="m2909.567,1033.894c-32.834,0-40.589-20.624-40.589-45.868c0-26.068 9.569-45.703 37.124-45.703c27.224,0 33.493,16.335 33.493,38.278v4.62c0,6.6-1.485,8.085-4.29,8.085h-49.003c-.825,0-.99,.33-.99,1.154c0,21.944 10.065,27.225 27.555,27.225c7.754,0 16.169-2.146 21.284-4.29c.329,0 .659-.165 .824-.165c.825,0 1.32,.33 1.65,.99l.66,8.744c0,.165 0,.33 0,.495c0,.66-.33,1.32-1.155,1.65c-7.094,3.135-16.004,4.785-26.563,4.785zm-23.265-52.138h36.629c1.484,0 1.979-.33 1.979-5.774c0-14.85-4.455-21.779-18.809-21.779c-16.83,0-20.79,11.22-20.79,26.398c.001,.66 .166,1.155 .991,1.155z"/>
<path fill="#ffffff" d="m2962.531,1032.244c-.495-.165-.99-.33-.99-1.155l.66-10.56c0-.495 .66-.825 1.319-.66c5.775,1.155 12.54,1.65 17.984,1.65c14.189,0 16.5-1.485 16.5-11.88c0-6.104-3.465-9.239-16.995-18.974c-13.529-9.735-18.644-13.859-18.644-24.584c0-16.995 7.59-23.76 29.203-23.76c7.755,0 14.354,.495 18.81,1.32c.495,.165 .99,.33 .99,1.155l-.66,10.56c0,.494-.66,.824-1.32,.659c-4.289-.659-10.56-1.484-16.004-1.484c-12.21,0-16.334,.825-16.334,9.899c0,7.26 3.629,9.734 17.159,18.645c14.189,9.404 18.809,15.839 18.809,25.738c0,19.47-8.744,25.079-28.873,25.079c-7.755,.002-16.5-.659-21.614-1.648z"/>
<path fill="#ffffff" d="m3037.768,926.648c-.99,0-1.65-.66-1.65-1.65v-13.859c0-.99 .66-1.649 1.65-1.649h14.024c.989,0 1.649,.659 1.649,1.649v13.859c0,.99-.66,1.65-1.649,1.65h-14.024zm.659,105.596c-.989,0-1.649-.66-1.649-1.65v-84.972c0-.989 .66-1.649 1.649-1.649h12.54c.99,0 1.649,.66 1.649,1.649v84.972c0,.99-.659,1.65-1.649,1.65h-12.54z"/>
<path fill="#ffffff" d="m3145.344,1031.089c0,25.244-13.529,30.854-36.299,30.854c-9.734,0-22.934-1.649-30.523-4.289c-.66-.165-.825-.99-.66-1.815l1.65-8.25c.165-.824 .99-1.319 1.979-.989c5.94,1.814 17.984,3.465 25.739,3.465c18.479,0 22.439-4.29 22.439-22.274c0-.825-.33-1.155-1.155-1.155c-3.795,.33-7.92,.495-12.54,.495c-32.338,0-40.588-9.899-40.588-42.073c0-29.863 11.22-42.733 39.269-42.733c7.92,0 19.964,.825 29.039,2.806c1.319,.329 1.649,.989 1.649,2.145l.001,83.813zm-16.994-16.334c.99-.495 1.155-.99 1.155-1.98v-54.777c0-.825-.165-1.65-1.155-1.98c-2.475-.824-7.755-1.484-13.364-1.484c-18.149,0-23.1,4.62-23.1,30.523c0,25.739 2.806,30.688 24.419,30.688c6.436-.001 10.23-.166 12.045-.99z"/>
<path fill="#ffffff" d="m3224.214,1032.244c-.99,0-1.65-.66-1.65-1.65v-56.758c0-15.509-3.135-19.304-19.799-19.304c-6.104,0-10.89,.495-14.52,1.319c-1.154,.33-1.649,.66-1.649,1.815v72.927c0,.99-.66,1.65-1.65,1.65h-12.539c-.99,0-1.65-.66-1.65-1.65v-83.156c0-.99 .66-1.485 1.65-1.65c8.909-1.649 22.108-3.465 30.358-3.465c29.039,0 35.639,6.271 35.639,30.359v57.912c0,.99-.66,1.65-1.65,1.65l-12.54,.001z"/>
</svg>
