<svg width="1024" xmlns="http://www.w3.org/2000/svg" height="271" viewBox="-1.35569997 -1.35569997 180.87454994 47.90139894">
<path fill="#003087" d="m32.6064,3.4075c-2.0925-2.385-5.875-3.4075-10.7138-3.4075h-14.0437c-.99,0-1.8312,.72-1.9862,1.6963l-5.8475,37.0862c-.1162,.7313 .45,1.3937 1.1912,1.3937h8.67l2.1775-13.8113l-.0675,.4325c.155-.9763 .99-1.6962 1.9787-1.6962h4.12c8.0938,0 14.4313-3.2875 16.2825-12.7975c.055-.2812 .1025-.555 .1437-.8225c-.2338-.1237-.2338-.1237 0,0c.5513-3.515-.004-5.9075-1.905-8.0738"/>
<path fill="#002f86" d="m122.1824,20.9441-4.6663,0c-.4463,0-.8637,.2213-1.1137,.5912l-6.4375,9.48l-2.7275-9.11c-.1713-.57-.6963-.9612-1.2913-.9612h-4.5862c-.5537,0-.9437,.545-.765,1.0688l5.1375,15.0825l-4.8325,6.8188c-.3787,.535 .004,1.275 .66,1.275h4.6612c.4412,0 .855-.2163 1.1075-.5787l15.5175-22.3975c.3713-.5362-.0113-1.2688-.6637-1.2688m-31.1959,9.0361c-.4488,2.6525-2.5537,4.4337-5.24,4.4337c-1.3462,0-2.425-.4338-3.1175-1.2537c-.6863-.8125-.945-1.9713-.7275-3.26c.4175-2.63 2.5575-4.4675 5.2025-4.4675c1.3187,0 2.3888,.4375 3.095,1.265c.7113,.8337 .9912,1.9988 .7875,3.2825m6.47-9.0363-4.6425,0c-.3975,0-.7362,.2888-.7987,.6825l-.2037,1.2975l-.3238-.47c-1.0062-1.4587-3.2475-1.9475-5.485-1.9475c-5.1287,0-9.51,3.8875-10.3625,9.3387c-.4437,2.72 .1863,5.3188 1.7288,7.1325c1.4163,1.6662 3.4375,2.36 5.8462,2.36c4.135,0 6.4275-2.655 6.4275-2.655l-.2075,1.29c-.0775,.49 .3012,.9338 .7987,.9338h4.18c.6637,0 1.2275-.4813 1.3312-1.1362l2.51-15.8925c.0775-.49-.3025-.9337-.7987-.9337m-27.8591,.1115c-.53,3.48-3.1875,3.48-5.7587,3.48h-1.4625l1.0262-6.4975c.0612-.3925 .4-.6812 .7975-.6812h.6713c1.75,0 3.4025,0 4.255,.9962c.51,.5963 .6637,1.4812 .4712,2.7025m-1.1188-9.08-9.695,0c-.6638,0-1.2275,.4825-1.3312,1.1375l-3.92,24.86c-.0775,.49 .3013,.9338 .7975,.9338h4.63c.6625,0 1.2263-.4825 1.33-1.1362l1.0588-6.7075c.1025-.655 .6675-1.1375 1.33-1.1375h3.0675c6.3863,0 10.0725-3.09 11.035-9.2163c.4338-2.6775 .0175-4.7825-1.2362-6.2562c-1.3787-1.62-3.8225-2.4775-7.0662-2.4775"/>
<path fill="#009cde" d="m172.0781,12.6586-3.9787,25.315c-.0775,.49 .3013,.9338 .7975,.9338h4.0025c.6625,0 1.2275-.4825 1.33-1.1375l3.9238-24.86c.0775-.49-.3013-.9337-.7988-.9337h-4.4775c-.3988,0-.7375,.2888-.7988,.6825m-11.9418,17.3216c-.4487,2.6525-2.5538,4.4338-5.24,4.4338c-1.3462,0-2.425-.4338-3.1175-1.2537c-.6875-.8125-.945-1.9713-.7275-3.26c.4175-2.63 2.5575-4.4675 5.2025-4.4675c1.3187,0 2.3887,.4375 3.095,1.265c.7113,.8337 .9913,1.9988 .7875,3.2825m6.47-9.0363-4.6425,0c-.3975,0-.7363,.2888-.7988,.6825l-.2038,1.2975l-.325-.47c-1.005-1.4587-3.2463-1.9475-5.4837-1.9475c-5.1287,0-9.51,3.8875-10.3625,9.3387c-.4437,2.72 .1863,5.3188 1.7287,7.1325c1.4162,1.6662 3.4375,2.36 5.8462,2.36c4.135,0 6.4275-2.655 6.4275-2.655l-.2075,1.29c-.0775,.49 .3013,.9338 .7988,.9338h4.18c.6637,0 1.2275-.4813 1.3313-1.1362l2.51-15.8925c.0775-.49-.3025-.9337-.7988-.9337m-27.8593,.1115c-.53,3.48-3.1875,3.48-5.7587,3.48h-1.4625l1.0263-6.4975c.0613-.3925 .4-.6812 .7975-.6812h.6712c1.75,0 3.4025,0 4.255,.9962c.51,.5963 .6637,1.4812 .4712,2.7025m-1.1188-9.08-9.695,0c-.6637,0-1.2275,.4825-1.3312,1.1375l-3.92,24.86c-.0775,.49 .3025,.9338 .7975,.9338h4.975c.4638,0 .8587-.3375 .9313-.795l1.1125-7.0487c.1025-.655 .6675-1.1375 1.33-1.1375h3.0675c6.3862,0 10.0725-3.09 11.035-9.2162c.4338-2.6775 .0175-4.7825-1.2363-6.2562c-1.3787-1.62-3.8225-2.4775-7.0662-2.4775"/>
<path fill="#003087" d="m32.6064,3.4075c-2.0925-2.385-5.875-3.4075-10.7138-3.4075h-14.0437c-.99,0-1.8312,.72-1.9862,1.6963l-5.8475,37.0862c-.1162,.7313 .45,1.3937 1.1912,1.3937h8.67l2.1775-13.8113l-.0675,.4325c.155-.9763 .99-1.6962 1.9787-1.6962h4.12c8.0938,0 14.4313-3.2875 16.2825-12.7975c.055-.2812 .1025-.555 .1437-.8225c-.2338-.1237-.2338-.1237 0,0c.5513-3.515-.004-5.9075-1.905-8.0738"/>
<path fill="#002f86" d="m14.3942,11.5279c.0925-.5875 .47-1.0687 .9775-1.3125c.2312-.11 .4887-.1713 .7587-.1713h11.01c1.3038,0 2.52,.085 3.6313,.2637c.3188,.0512 .6275,.11 .9275,.1775c.3,.0662 .5912,.1412 .8737,.2238c.1412,.0412 .28,.0838 .4162,.1288c.5463,.1825 1.055,.395 1.5225,.6438c.5513-3.5162-.004-5.9075-1.905-8.0738c-2.0938-2.385-5.875-3.4075-10.7137-3.4075h-14.045c-.9887,0-1.83,.72-1.985,1.6963l-5.8475,37.085c-.1163,.7325 .45,1.3937 1.19,1.3937h8.6713l2.1775-13.8113l2.34-14.8362z"/>
<path fill="#009cde" d="m34.5117,11.4812c-.0425,.2688-.0888,.5412-.1437,.8225c-1.8513,9.5088-8.1887,12.7975-16.2825,12.7975h-4.1212c-.9887,0-1.8238,.72-1.9775,1.6962l-2.11,13.3775l-.5988,3.795c-.1013,.64 .3938,1.22 1.0412,1.22h7.3087c.865,0 1.6013-.63 1.7363-1.4838l.0713-.3725l1.3775-8.73l.0888-.4825c.135-.8537 .8712-1.4838 1.7363-1.4838h1.0938c7.08,0 12.6238-2.8762 14.2437-11.195c.6763-3.4763 .3263-6.3788-1.4625-8.4175c-.5425-.6175-1.2163-1.1275-2.0012-1.5437"/>
<path fill="#012069" d="m32.5733,10.7086c-.2825-.0825-.5738-.1575-.8738-.2238c-.3-.0663-.61-.125-.9275-.1762c-1.1125-.18-2.3275-.265-3.6325-.265h-11.0087c-.2713,0-.5288,.0613-.7587,.1725c-.5087,.2438-.885,.7238-.9775,1.3125l-2.34,14.8363l-.0675,.4325c.1538-.9763 .9887-1.6962 1.9775-1.6962h4.1212c8.0938,0 14.4312-3.2875 16.2825-12.7975c.055-.2812 .1013-.5538 .1437-.8225c-.4688-.2475-.9763-.4612-1.5225-.6425c-.1362-.045-.275-.0888-.4162-.13"/>
</svg>
