<?xml version="1.0" encoding="utf-8"?>
<!-- Generator: Adobe Illustrator 17.0.0, SVG Export Plug-In . SVG Version: 6.00 Build 0)  -->
<!DOCTYPE svg PUBLIC "-//W3C//DTD SVG 1.1//EN" "http://www.w3.org/Graphics/SVG/1.1/DTD/svg11.dtd">
<svg version="1.1" id="Ebene_1" xmlns="http://www.w3.org/2000/svg" xmlns:xlink="http://www.w3.org/1999/xlink" x="0px" y="0px"
	 width="50px" height="50px" viewBox="0 0 50 50" enable-background="new 0 0 50 50" xml:space="preserve">
<path fill="#6F6F6E" d="M45.043,15.694L35.38,6.031c-0.902-0.901-2.364-0.901-3.264,0c-0.633,0.633-0.812,1.536-0.558,2.332
	l-14.799,5.793c-0.616,0.244-0.99,0.875-0.904,1.531c0.013,0.098,1.142,9.893-10.361,23.377c-0.489,0.573-0.455,1.426,0.077,1.957
	l4.547,4.548c0.281,0.282,0.65,0.422,1.021,0.422c0.332,0,0.666-0.113,0.936-0.345c11.306-9.645,20.121-10.395,22.553-10.395
	c0.534,0,0.825,0.034,0.825,0.034c0.658,0.086,1.29-0.287,1.531-0.904l5.81-14.841c0.202,0.056,0.409,0.094,0.618,0.094
	c0.591,0,1.181-0.226,1.632-0.675C45.944,18.058,45.944,16.596,45.043,15.694z M34.673,32.367c-0.015,0-0.031,0-0.047,0
	c-3.336,0-12.16,1.017-23.401,10.23l-0.729-0.729l15.746-15.746c0.334,0.158,0.699,0.249,1.079,0.249
	c0.68,0,1.321-0.265,1.803-0.748c0.994-0.994,0.994-2.613,0-3.607c-0.482-0.481-1.122-0.746-1.803-0.746s-1.322,0.265-1.805,0.748
	c-0.776,0.778-0.936,1.934-0.497,2.879L9.271,40.644l-0.728-0.729c9.36-11.423,10.248-20.361,10.232-23.449l13.322-5.216
	l7.792,7.792L34.673,32.367z"/>
</svg>
