<?xml version="1.0" encoding="utf-8"?>
<!-- Generator: Adobe Illustrator 17.0.0, SVG Export Plug-In . SVG Version: 6.00 Build 0)  -->
<!DOCTYPE svg PUBLIC "-//W3C//DTD SVG 1.1//EN" "http://www.w3.org/Graphics/SVG/1.1/DTD/svg11.dtd">
<svg version="1.1" id="Ebene_1" xmlns="http://www.w3.org/2000/svg" xmlns:xlink="http://www.w3.org/1999/xlink" x="0px" y="0px"
	 width="50px" height="50px" viewBox="0 0 50 50" enable-background="new 0 0 50 50" xml:space="preserve">
<path fill="#706F6F" d="M44.702,13.043c-0.114-0.273-0.348-0.477-0.634-0.551l-17.817-4.59c-0.46-0.118-0.928,0.12-1.105,0.556
	l-3.14,7.73c-0.06,0.147-0.068,0.299-0.052,0.447l-2.434,0.569l-0.058-0.077c-0.097-0.129-0.224-0.231-0.372-0.297l-13.65-6.04
	c-0.386-0.17-0.839-0.064-1.107,0.263c-0.268,0.327-0.285,0.791-0.042,1.137l4.842,6.883v13.05c0,0.326,0.169,0.629,0.446,0.799
	l13.829,8.515c0.15,0.092,0.321,0.139,0.493,0.139c0.114,0,0.228-0.02,0.336-0.061l14.978-5.736
	c0.364-0.139,0.603-0.489,0.603-0.878v-12.85l4.822-8.174C44.793,13.625,44.815,13.316,44.702,13.043z M38.072,21.32
	c-0.085,0.144-0.13,0.31-0.13,0.477v12.459l-13.941,5.339L11.013,31.6V18.778c0-0.194-0.059-0.383-0.171-0.541L7.778,13.88
	l10.327,4.57l2.833,3.789l-10.309-3.839c-0.472-0.218-1.029-0.01-1.246,0.461c-0.216,0.472-0.01,1.03,0.462,1.247l13.119,5.13V36.45
	c0,0.519,0.42,0.939,0.939,0.939c0.519,0,0.939-0.42,0.939-0.939V24.655c0,0,0-0.002,0-0.004v-0.015
	c0-0.014-0.008-0.026-0.008-0.039c-0.002-0.053-0.012-0.105-0.023-0.158l13.043-2.822l-13.834-5.39l2.558-6.298l15.811,4.073
	L38.072,21.32z"/>
</svg>
