<svg xmlns="http://www.w3.org/2000/svg" viewBox="0 0 300 209" enable-background="new 0 0 300 209">
<path fill="#fff" d="m0,0h300v209h-300z"/>
<path opacity=".1" d="m59.833,0h9v209h-9z"/>
<path opacity=".1" d="m78.833,0h9v209h-9z"/>
<path opacity=".1" d="m97.833,0h9v209h-9z"/>
<path opacity=".1" d="m116.833,0h9v209h-9z"/>
<path opacity=".1" d="m135.833,0h9v209h-9z"/>
<path opacity=".1" d="m154.833,0h9v209h-9z"/>
<path opacity=".1" d="m173.833,0h9v209h-9z"/>
<path opacity=".1" d="m192.833,0h9v209h-9z"/>
<path opacity=".1" d="m211.833,0h9v209h-9z"/>
<path opacity=".1" d="m230.833,0h9v209h-9z"/>
<path d="m137.713,114.338c-.049-.341-.245-.512-.585-.512h-14.263c-.438,0-.684,.171-.731,.512l-2.779,11.337c-.195,.487-.512,.731-.951,.731h-8.484c-.391,0-.585-.146-.585-.439c0-.146 .024-.243 .073-.292c.341-1.463 .841-3.438 1.5-5.925c.658-2.486 1.4-5.241 2.23-8.265c.828-3.022 1.682-6.181 2.56-9.472c.878-3.291 1.756-6.473 2.633-9.545c.878-3.072 1.683-5.924 2.414-8.557c.731-2.633 1.364-4.802 1.901-6.51c.146-.487 .439-.731 .878-.731h13.97c.439,0 .731,.245 .878,.731c.536,1.805 1.182,4.108 1.938,6.912c.755,2.804 1.572,5.814 2.45,9.033s1.755,6.509 2.633,9.874s1.706,6.535 2.486,9.508c.78,2.975 1.463,5.608 2.049,7.899c.585,2.292 .998,3.975 1.243,5.047v.292c0,.293-.172,.439-.512,.439h-9.362c-.537,0-.854-.244-.951-.731l-2.633-11.336zm-1.828-7.9c.292,0 .438-.146 .438-.438c-.195-.926-.488-2.279-.878-4.06c-.391-1.78-.829-3.694-1.316-5.742c-.488-2.048-.963-4.083-1.426-6.107c-.465-2.022-.866-3.742-1.207-5.156c-.05-.146-.146-.244-.293-.292c-.146-.048-.464-.073-.95-.073c-.488,0-.805,.025-.951,.073c-.146,.049-.245,.146-.293,.292c-.391,1.415-.841,3.134-1.353,5.156c-.513,2.024-1.024,4.06-1.536,6.107s-.976,3.962-1.39,5.742c-.415,1.78-.72,3.134-.914,4.06c0,.292 .146,.438 .438,.438h11.631z"/>
<path d="m168.944,94.224c-1.316,0-2.865,.073-4.645,.219c-1.78,.146-3.255,.318-4.425,.512c-.245,.049-.476,.062-.695,.037c-.22-.024-.354-.158-.402-.402l-.512-5.632c-.099-.536 .048-.877 .438-1.024c1.414-.39 3.279-.719 5.596-.987c2.315-.267 4.718-.402 7.204-.402c2.242,0 4.267,.208 6.07,.622c1.804,.415 3.34,1.073 4.608,1.975c1.268,.903 2.23,2.097 2.889,3.584c.658,1.488 .987,3.304 .987,5.449v26.55c0,.245-.062,.451-.183,.622c-.122,.171-.378,.329-.768,.476c-.635,.195-1.427,.378-2.377,.548c-.951,.171-1.987,.305-3.109,.402s-2.304,.183-3.547,.256s-2.499,.11-3.767,.11c-3.316,0-6.07-.172-8.265-.513c-2.194-.34-3.95-.938-5.267-1.792c-1.316-.853-2.243-1.975-2.779-3.364c-.537-1.39-.805-3.132-.805-5.229c0-1.853 .146-3.474 .439-4.863c.292-1.39 .877-2.561 1.755-3.511c.878-.951 2.133-1.73 3.767-2.341c1.634-.609 3.791-1.085 6.474-1.427l8.63-1.097c.293-.048 .439-.194 .439-.439v-2.926c0-2.194-.586-3.645-1.756-4.352c-1.167-.707-3.167-1.061-5.994-1.061zm7.753,15.214c0-.293-.146-.439-.439-.439h-4.9c-1.316,0-2.413,.073-3.291,.22s-1.585,.451-2.121,.914c-.537,.465-.914,1.098-1.134,1.902s-.329,1.865-.329,3.182s.097,2.353 .293,3.108c.194,.756 .56,1.329 1.097,1.719c.536,.391 1.255,.646 2.157,.768c.902,.122 2.085,.183 3.548,.183c.828,0 1.683-.036 2.56-.109c.878-.073 1.561-.157 2.048-.256c.341-.098 .513-.268 .513-.512v-10.68z"/>
</svg>
