<svg xmlns="http://www.w3.org/2000/svg" viewBox="0 0 80 80" enable-background="new 0 0 80 80">
<path d="m21.93,46.482c.085,0 .154-.067 .167-.161l.448-3.514l-.447-3.593c-.014-.094-.083-.161-.168-.161c-.084,0-.154,.069-.167,.161l-.393,3.593l.393,3.513c.013,.095 .083,.162 .167,.162zm-1.318-1.49zm-.16,.156c.08,0 .147-.064 .16-.156l.347-2.184l-.347-2.222c-.013-.092-.079-.156-.16-.156c-.084,0-.149,.065-.161,.157l-.293,2.221l.293,2.184c.012,.091 .078,.156 .161,.156zm3.251-6.602c-.013-.114-.098-.198-.201-.198c-.106,0-.191,.084-.201,.198c0,.001-.373,4.263-.373,4.263l.373,4.107c.01,.114 .095,.196 .201,.196c.103,0 .188-.083 .2-.195l.425-4.108l-.424-4.263zm1.384,8.729c.122,0 .223-.098 .234-.23l.4-4.236l-.4-4.379c-.012-.133-.113-.231-.234-.231c-.124,0-.225,.098-.235,.231l-.353,4.379l.353,4.236c.01,.132 .111,.23 .235,.23zm1.597,.07c.143,0 .257-.114 .268-.264l.378-4.272l-.378-4.064c-.01-.149-.125-.263-.268-.263c-.145,0-.261,.115-.27,.265l-.333,4.062l.333,4.272c.01,.15 .126,.264 .27,.264zm2.267-4.534l-.355-6.61c-.009-.168-.142-.3-.303-.3c-.161,0-.294,.132-.302,.3l-.312,6.61l.312,4.272c.008,.167 .141,.299 .302,.299c.161,0 .294-.132 .303-.301v.002l.355-4.272zm.965,4.578c.18,0 .328-.147 .337-.333v.002l.331-4.247l-.331-8.12c-.009-.187-.157-.333-.337-.333c-.18,0-.329,.146-.337,.333l-.292,8.12l.292,4.246c.009,.185 .157,.332 .337,.332zm1.637-13.743c-.201,0-.364,.162-.371,.369l-.274,8.798l.274,4.202c.007,.204 .17,.365 .371,.365c.2,0 .363-.161 .371-.368v.002l.308-4.202l-.308-8.798c-.009-.206-.172-.368-.371-.368zm1.648,13.743c.221,0 .397-.177 .405-.402v.002l.284-4.175l-.284-9.095c-.008-.226-.185-.402-.405-.402c-.22,0-.398,.176-.405,.402l-.253,9.094l.253,4.177c.007,.222 .185,.399 .405,.399zm1.662-.004c.24,0 .432-.194 .439-.437v.002l.261-4.136l-.261-8.863c-.007-.245-.199-.436-.439-.436c-.241,0-.435,.192-.44,.436l-.232,8.863l.232,4.135c.005,.242 .199,.436 .44,.436zm2.384-4.57l-.235-8.542c-.007-.263-.215-.47-.474-.47c-.261,0-.468,.207-.474,.471l-.211,8.541l.212,4.11c.005,.26 .213,.468 .473,.468c.26,0 .467-.208 .474-.472v.004l.235-4.11zm.978,4.585c.274,0 .503-.227 .508-.507v.004l.214-4.082l-.214-10.162c-.004-.278-.233-.504-.508-.504c-.276,0-.503,.226-.508,.504l-.192,10.16c0,.007 .192,4.085 .192,4.085c.005,.275 .232,.502 .508,.502zm1.68-16.207c-.295,0-.537,.242-.542,.541l-.222,11.082l.222,4.023c.004,.293 .247,.536 .542,.536c.294,0 .538-.243 .542-.54v.005l.241-4.024l-.241-11.083c-.005-.298-.249-.54-.542-.54zm1.537,16.21c.012,.002 13.55,.007 13.637,.007c2.718,0 4.92-2.202 4.92-4.92c0-2.718-2.201-4.92-4.92-4.92c-.673,0-1.317,.137-1.903,.381c-.392-4.435-4.109-7.912-8.645-7.912c-1.11,0-2.192,.218-3.148,.588c-.371,.144-.47,.292-.473,.579v15.614c.004,.302 .237,.554 .532,.583z"/>
</svg>
