<?xml version="1.0" encoding="utf-8"?>
<!-- Generator: Adobe Illustrator 17.0.0, SVG Export Plug-In . SVG Version: 6.00 Build 0)  -->
<!DOCTYPE svg PUBLIC "-//W3C//DTD SVG 1.1//EN" "http://www.w3.org/Graphics/SVG/1.1/DTD/svg11.dtd">
<svg version="1.1" id="Ebene_1" xmlns="http://www.w3.org/2000/svg" xmlns:xlink="http://www.w3.org/1999/xlink" x="0px" y="0px"
	 width="119.134px" height="213.684px" viewBox="0 0 119.134 213.684" enable-background="new 0 0 119.134 213.684"
	 xml:space="preserve">
<g>
	<path fill="none" stroke="#FFFFFF" stroke-width="0.25" stroke-miterlimit="10" d="M56.841,149.992c0,0,7.911,0,12.962-9.817
		s4.289-26.972,12.962-27.449c0,0-5.337-1.43-8.578,11.437c-3.24,12.867-7.72,23.351-15.345,23.351c0,0,16.202-7.72,18.109-17.918
		c0,0-2.573,10.007-15.25,14.296c0,0,4.289-8.482,16.393-11.723c0,0-8.959,0.953-16.584,9.245c0,0-1.525,1.429-3.24,1.429
		c0,0,12.643-18.617,19.824-21.285c7.179-2.669,11.373,0.381,11.373,0.381s-9.149-4.955-18.363,4.321
		c-9.212,9.276-10.992,10.294-10.992,10.294s10.295-10.102,12.328-14.169s2.033-6.735,2.033-6.735s-0.825,8.324-10.929,15.186
		c0,0,3.94-3.177,8.578-10.611c4.639-7.434,4.321-11.564,4.321-11.564s-2.606,13.66-15.251,22.429c0,0,6.99-13.852,18.046-14.868
		c0,0-5.147-1.143-14.996,8.07c0,0,0.891-5.275,7.181-10.167s7.879-6.672,8.704-9.912c0,0-0.57,3.305-6.162,7.18
		c-5.592,3.876-7.625,5.019-8.515,5.972c0,0,2.701-4.255,5.433-6.511c2.733-2.256,6.004-6.578,7.084-13.885
		c0,0-1.08,8.515-8.323,14.233c0,0,7.879-8.196,7.689-14.487c-0.191-6.29,4.892-8.069,4.892-8.069s-4.701,1.525-5.273,5.401
		c-0.572,3.876,1.461,4.638-5.466,13.725l-4.193,4.447c0,0,3.305-4.32,4.639-7.688c1.334-3.368,1.525-9.086,1.525-9.086
		s-0.509,9.404-6.735,15.377c0,0,3.432-5.465,4.767-10.611c1.334-5.146,2.859-8.832,4.765-10.675c0,0-3.496,3.685-4.957,8.196
		c-1.461,4.512-3.812,11.818-6.29,14.106c0,0,7.053-20.333,10.484-24.589c0,0-3.24,4.448-5.528,9.467
		c-2.287,5.019-5.528,12.327-5.528,12.327s6.323-18.903,11.613-25.86c0,0-3.24,4.098-5.48,7.72c0,0,2.144-6.052,6.195-11.77
		c0,0-4.432,5.814-6.052,9.054c0,0,2.812-7.244,6.957-13.486c0,0-4.956,5.194-11.151,20.396s-7.482,19.586-7.482,19.586
		s5.623-17.632,9.626-26.305s8.863-17.727,8.863-17.727s-6.529,10.103-11.961,22.064c0,0,2.192-12.438,12.152-23.255
		c0,0-6.862,5.782-12.454,19.506c-5.592,13.724-6.481,18.49-6.481,18.49S63.67,88.2,69.326,78.924
		c5.655-9.276,9.15-10.992,9.15-10.992s-7.687,4.067-14.551,19.443c0,0,3.447-13.725,13.646-20.206c0,0-4.146,1.811-7.863,6.147
		c-3.717,4.337-7.338,14.535-7.338,14.535s3.764-17.108,14.82-23.494c0,0-6.624,2.287-11.771,12.2
		c-5.147,9.912-5.766,13.486-5.766,13.486s5.813-20.491,15.344-26.733c0,0-3.622,2.001-5.671,4.289c0,0,1.859-3.622,7.434-6.29
		c0,0-2.526,0.524-4.575,1.763c0,0,1.62-2.621,4.718-5.099c0,0-3.145,0.81-7.291,6.958C65.466,71.078,59.7,82.325,59.7,82.325
		S64.99,63.5,76.284,57.019c0,0-1,0.143-2.955,1.191c-1.954,1.048-8.101,6.29-9.96,12.2c0,0,2.049-10.055,11.58-14.058
		c0,0-3.05,0.953-5.432,2.764c-2.383,1.811-5.766,7.148-5.766,7.148s4.193-9.007,10.818-12.342c0,0-3.098,1.048-6.1,3.717
		s-4.05,4.718-4.05,4.718s4.718-10.484,12.676-11.58c0,0-2.335-0.286-5.909,1.906c-3.574,2.192-6.004,6.148-6.004,6.148
		s3.764-8.53,10.722-11.246c0,0-4.241,0.619-8.006,5.099s-5.719,8.959-5.719,8.959s4.956-13.01,13.01-15.392
		c0,0-5.242,0.81-9.96,7.958c-4.718,7.148-5.909,10.627-5.909,10.627s4.527-16.202,15.297-21.969c0,0-3.526,1.477-6.004,3.86
		s-3.764,3.86-3.764,3.86s2.859-6.481,9.102-10.532c0,0-4.384,1.906-6.719,5.004c-2.335,3.098-2.716,4.051-2.716,4.051
		s1.954-7.291,9.102-11.389c0,0-3.86,1.048-7.244,5.051c0,0,2.716-4.241,7.625-6.481c0,0-3.384,0.715-6.576,3.479
		c0,0-2.161,1.922-2.542,3.257c0,0,0.381-4.765,8.07-8.006c0,0-4.957,0.508-7.753,4.765c-2.795,4.257-3.367,6.608-3.367,6.608
		s1.081-7.751,9.912-13.915c0,0-5.146,0.952-9.085,8.895c0,0,1.97-8.26,8.704-11.881c0,0-2.478,0.572-5.592,3.558
		c-3.112,2.987-5.464,9.594-5.464,9.594s2.731-11.691,10.229-15.122c0,0-3.112,1.334-5.781,3.812c0,0,2.796-3.177,5.845-4.702
		c0,0-2.669,0.763-5.337,2.923c-2.669,2.16-3.431,3.367-3.431,3.367s1.334-4.892,6.927-8.323c0,0-7.053,1.715-10.929,12.835
		c0,0,3.178-10.992,9.722-15.313c0,0-2.478,1.144-5.338,4.575c-2.859,3.431-4.193,6.481-4.193,6.481s1.589-6.609,7.815-12.263
		c0,0-4.258,1.716-7.434,6.862c-3.177,5.147-2.669,5.464-2.669,5.464s1.636-10.913,10.071-15.107c0,0-5.052,1.906-8.721,8.578
		c0,0,1.43-4.194,6.338-9.245c0,0-2.192,1.239-4.861,4.575s-3.908,7.768-3.908,7.768s0.476-6.862,6.576-11.913
		c0,0-2.955,1.811-5.719,6.195s-3.05,6.767-3.05,6.767s2.287-8.959,7.72-14.201c0,0-2.383,1.144-6.672,6.767
		c0,0,1.811-4.098,4.479-7.434c0,0-7.053,4.098-7.625,13.82c0,0-0.762-2.859,2.001-8.768c0,0-2.573,2.573-3.526,10.674
		s0.095,12.009,0.095,12.009s-1.048-6.672-0.953-11.628c0.096-4.956,1.525-6.957,1.525-6.957s-2.764,2.669-2.954,13.82
		c-0.191,11.151,0.667,16.107,0.667,16.107s-1.239-12.485-1.239-16.774s1.525-9.34,1.525-9.34s-2.669,3.05-2.764,17.06
		s2.287,20.491,2.287,20.491s-4.337-14.153-3.669-19.681c0.667-5.528,1.429-6.481,1.429-6.481s-2.192,2.288-2.049,9.435
		c0.143,7.148,2.955,17.966,2.955,17.966S42.831,57.4,42.783,55.113c-0.048-2.287-0.238-4.098-0.238-4.098s-0.381,1.096-0.429,4.67
		c-0.048,3.574,0.619,9.817,2.144,14.392s3.098,16.06,3.098,16.06s-2.43-11.532-3.574-15.011s-2.811-8.244-1.716-10.722
		c0,0-1.001,2.001-0.333,7.244c0.667,5.242,4.479,16.774,4.193,20.158c0,0-0.524-2.907-2.049-6.624s-2.669-8.53-2.192-11.342
		c0,0-0.62,4.67-0.143,7.91c0.128,0.877,0.39,1.847,0.71,2.846c0.864,2.694,2.156,5.592,2.435,7.4
		c0.381,2.478,0.286,4.003,0.286,4.003s-1.287-4.766-1.811-6.576c-0.524-1.811-1.096-3.002-1.048-4.575
		c0.048-1.572-0.334,1.763,0.667,6.72c1.001,4.956,5.528,17.775,4.622,19.633c0,0-0.905-4.908-2.049-7.863s-2.526-6.814-2.621-8.482
		c-0.095-1.668-0.286-3.527-0.286-3.527s-1.382,3.574-0.191,8.149c1.191,4.575,3.669,9.817,3.479,12.438
		c0,0-0.286-2.192-1.334-3.765s-1.239-4.527-1.239-4.527s-0.619,2.573-0.095,5.385c0.524,2.811,2.621,9.435,5.051,12.914
		c0,0-2.304-3.351-3.383-5.575c-1.081-2.224-1.525-5.02-1.525-5.02s0.381,5.401,2.097,9.34c1.715,3.939,4.511,11.056,4.32,12.835
		c0,0-2.414-4.193-5.273-7.497c-2.859-3.304-5.275-9.34-4.448-13.724c0,0-2.033,7.623,5.718,17.854
		c7.752,10.23,5.655,10.993,5.655,10.993s-1.016-3.812-2.796-5.528c-1.779-1.715-4.511-4.193-4.766-6.862
		c0,0,0.763,5.146,3.812,7.879c3.05,2.732,4.384,9.912,4.384,9.912s-0.763-2.478-1.906-4.384c-1.144-1.906-2.478-2.033-2.478-4.066
		c0,0-0.572,5.591,3.559,10.992c0,0,0.063,0.382-1.462-1.079c-1.525-1.462-1.842-2.859-1.842-2.859s0.636,6.418,5.845,8.768
		l1.589,0.763L56.841,149.992z"/>
	<path fill="#FFFFFF" stroke="#FFFFFF" stroke-width="0.25" stroke-miterlimit="10" d="M53.853,34.509
		c0,0-7.001,30.553,3.211,138.199c0,0,0.974-4.049,0.577-7.116C57.244,162.526,46.269,81.134,53.853,34.509z"/>
</g>
<g>
	<path fill="#FFFFFF" d="M40.073,186.466v1.033h-4.84v-8.052h1.133v7.019H40.073z"/>
	<path fill="#FFFFFF" d="M49.453,186.466v1.033h-4.741v-8.052h4.664v1.034h-3.531v2.453h3.432v1.034h-3.432v2.497h3.608V186.466z"/>
	<path fill="#FFFFFF" d="M62.257,179.448v8.052h-0.892l-5.302-6.094v6.094H54.93v-8.052h0.902c0.513,0.623,1.008,1.21,1.485,1.76
		c0.477,0.551,0.957,1.089,1.441,1.617c0.396,0.447,0.79,0.896,1.183,1.348c0.392,0.451,0.786,0.907,1.182,1.369v-6.094
		L62.257,179.448L62.257,179.448z"/>
	<path fill="#FFFFFF" d="M73.511,179.448v1.034h-2.815v7.018h-1.134v-7.018h-2.815v-1.034H73.511z"/>
	<path fill="#FFFFFF" d="M82.322,186.466v1.033h-4.74v-8.052h4.663v1.034h-3.53v2.453h3.432v1.034h-3.432v2.497h3.607V186.466z"/>
</g>
<g>
	<path fill="#FFFFFF" d="M41.687,194.122c0.008,0.26,0.098,0.474,0.27,0.642c0.184,0.185,0.412,0.276,0.684,0.276
		c0.2,0,0.372-0.042,0.516-0.126c0.044-0.024,0.086-0.048,0.126-0.072s0.082-0.053,0.126-0.087s0.094-0.076,0.15-0.126
		s0.124-0.111,0.204-0.184v0.738c-0.176,0.136-0.354,0.243-0.534,0.321s-0.384,0.117-0.612,0.117c-0.448,0-0.816-0.15-1.104-0.45
		s-0.432-0.68-0.432-1.141c0-0.203,0.032-0.396,0.096-0.575c0.064-0.181,0.162-0.345,0.294-0.492
		c0.264-0.296,0.598-0.444,1.002-0.444c0.396,0,0.72,0.139,0.972,0.414c0.128,0.141,0.222,0.303,0.282,0.489s0.09,0.419,0.09,0.699
		h-2.13V194.122z M41.777,193.648h1.35c-0.02-0.067-0.045-0.138-0.075-0.21c-0.03-0.071-0.065-0.128-0.105-0.168
		c-0.112-0.111-0.268-0.168-0.468-0.168c-0.24,0-0.43,0.088-0.57,0.265c-0.024,0.031-0.047,0.075-0.069,0.132
		C41.818,193.554,41.797,193.604,41.777,193.648z"/>
	<path fill="#FFFFFF" d="M48.317,194.098c0.096,0.08,0.167,0.172,0.213,0.276s0.069,0.22,0.069,0.348
		c0,0.248-0.102,0.464-0.306,0.648c-0.196,0.172-0.434,0.258-0.714,0.258c-0.22,0-0.41-0.034-0.57-0.103
		c-0.08-0.031-0.15-0.064-0.21-0.099c-0.06-0.034-0.124-0.073-0.192-0.117v-0.647c0.08,0.052,0.148,0.095,0.204,0.129
		s0.106,0.062,0.15,0.084c0.044,0.021,0.084,0.04,0.12,0.054s0.072,0.027,0.108,0.039c0.144,0.048,0.274,0.072,0.39,0.072
		c0.076,0,0.14-0.008,0.192-0.024c0.052-0.016,0.1-0.04,0.144-0.072c0.072-0.052,0.108-0.128,0.108-0.228
		c0-0.064-0.028-0.122-0.084-0.174c-0.032-0.032-0.089-0.069-0.171-0.111s-0.199-0.089-0.351-0.141
		c-0.24-0.092-0.43-0.202-0.57-0.33c-0.148-0.145-0.222-0.332-0.222-0.564c0-0.252,0.104-0.464,0.312-0.636
		c0.204-0.16,0.432-0.24,0.684-0.24c0.188,0,0.358,0.03,0.51,0.09c0.072,0.028,0.138,0.06,0.198,0.094
		c0.06,0.033,0.122,0.079,0.186,0.135v0.672c-0.084-0.06-0.154-0.11-0.21-0.15s-0.103-0.072-0.141-0.099s-0.072-0.047-0.102-0.063
		c-0.03-0.016-0.059-0.029-0.087-0.042c-0.116-0.048-0.226-0.071-0.33-0.071c-0.084,0-0.153,0.008-0.207,0.023
		c-0.054,0.017-0.097,0.04-0.129,0.072c-0.072,0.06-0.108,0.13-0.108,0.21s0.032,0.145,0.096,0.192
		c0.052,0.032,0.11,0.063,0.174,0.096s0.142,0.064,0.234,0.096C47.95,193.858,48.153,193.966,48.317,194.098z"/>
	<path fill="#FFFFFF" d="M53.603,194.823v0.612c-0.096,0.044-0.172,0.076-0.228,0.096c-0.056,0.021-0.106,0.036-0.15,0.049
		c-0.096,0.027-0.204,0.042-0.324,0.042c-0.232,0-0.42-0.066-0.564-0.198c-0.08-0.068-0.136-0.15-0.168-0.246
		c-0.032-0.096-0.048-0.198-0.048-0.306v-1.765h-0.726v-0.534h0.726v-0.689l0.306-0.204h0.282v0.894h0.756v0.534h-0.756v1.566
		c0,0.107,0.005,0.186,0.015,0.234c0.01,0.048,0.019,0.075,0.027,0.084c0.008,0.008,0.027,0.018,0.057,0.029
		c0.03,0.013,0.087,0.019,0.171,0.019c0.052,0,0.114-0.01,0.186-0.03c0.036-0.012,0.081-0.029,0.135-0.051
		C53.354,194.937,53.455,194.892,53.603,194.823z"/>
	<path fill="#FFFFFF" d="M57.161,194.936v0.633h-0.684v-0.633H57.161z"/>
	<path fill="#FFFFFF" d="M62.543,194.986v0.582h-2.808v-0.294c0.148-0.151,0.279-0.289,0.393-0.411
		c0.114-0.121,0.219-0.236,0.315-0.345c0.192-0.208,0.39-0.46,0.594-0.756c0.076-0.112,0.143-0.223,0.201-0.333
		s0.113-0.221,0.165-0.333c0.092-0.216,0.139-0.426,0.139-0.63c0-0.212-0.074-0.392-0.222-0.54
		c-0.144-0.145-0.328-0.216-0.552-0.216c-0.168,0-0.312,0.036-0.432,0.107c-0.036,0.021-0.072,0.042-0.108,0.066
		c-0.036,0.024-0.078,0.056-0.126,0.096s-0.105,0.091-0.171,0.153s-0.147,0.137-0.243,0.225v-0.779
		c0.076-0.068,0.151-0.125,0.225-0.172c0.074-0.046,0.151-0.091,0.231-0.135c0.184-0.1,0.402-0.149,0.654-0.149
		c0.376,0,0.695,0.128,0.96,0.384c0.264,0.26,0.396,0.578,0.396,0.954c0,0.28-0.069,0.569-0.21,0.87
		c-0.067,0.147-0.135,0.277-0.201,0.39c-0.065,0.112-0.129,0.21-0.188,0.294c-0.076,0.108-0.15,0.213-0.222,0.315
		s-0.148,0.203-0.228,0.303c-0.044,0.06-0.09,0.119-0.138,0.177c-0.048,0.059-0.098,0.117-0.15,0.177H62.543z"/>
	<path fill="#FFFFFF" d="M67.757,192.97c0.292,0.304,0.438,0.672,0.438,1.104c0,0.44-0.144,0.807-0.432,1.099
		c-0.148,0.152-0.313,0.265-0.495,0.339s-0.381,0.111-0.597,0.111c-0.437,0-0.798-0.15-1.086-0.45
		c-0.292-0.304-0.438-0.67-0.438-1.099c0-0.439,0.145-0.808,0.432-1.104c0.148-0.152,0.313-0.265,0.495-0.339
		c0.183-0.074,0.381-0.111,0.598-0.111C67.107,192.52,67.469,192.67,67.757,192.97z M67.319,194.764
		c0.181-0.184,0.271-0.414,0.271-0.69c0-0.268-0.09-0.497-0.271-0.689c-0.184-0.188-0.399-0.282-0.647-0.282
		c-0.252,0-0.469,0.092-0.648,0.276c-0.18,0.191-0.27,0.424-0.27,0.695c0,0.265,0.09,0.492,0.27,0.685
		c0.184,0.188,0.4,0.282,0.648,0.282C66.923,195.04,67.139,194.948,67.319,194.764z"/>
	<path fill="#FFFFFF" d="M72.407,191.176v4.392h-0.611v-3.149l-0.757,0.762l-0.42-0.432l1.177-1.17v-0.402L72.407,191.176
		L72.407,191.176z"/>
	<path fill="#FFFFFF" d="M78.052,193.444v0.546h-0.569v1.578h-0.606v-1.578h-1.872v-0.306l2.143-2.562h0.342v2.321L78.052,193.444
		L78.052,193.444z M75.905,193.444h0.978v-1.182L75.905,193.444z"/>
</g>
</svg>
