<svg xmlns="http://www.w3.org/2000/svg" viewBox="0 0 80 80" enable-background="new 0 0 80 80">
<path d="m33.384,57.916c-4.756,0-8.19-3.009-8.19-6.625c0-3.544 4.26-6.494 9.016-6.442c1.109,.013 2.144,.191 3.082,.494c2.579,1.796 4.432,2.809 4.954,4.855c.099,.416 .153,.841 .153,1.277c0,3.617-2.329,6.441-9.015,6.441m1.25-21.204c-3.19-.095-6.225-3.57-6.775-7.761c-.551-4.192 1.591-7.399 4.781-7.305c3.19,.096 6.225,3.458 6.775,7.649c.549,4.193-1.59,7.514-4.781,7.417m6.616,6.207c-1.119-.792-3.259-2.719-3.259-3.853c0-1.33 .379-1.982 2.377-3.544c2.049-1.602 3.499-3.853 3.499-6.469c0-3.117-1.388-6.153-3.993-7.156h3.927l2.772-2.003h-12.387c-5.552,0-10.78,4.208-10.78,9.08c0,4.981 3.786,9.001 9.436,9.001c.394,0 .774-.008 1.148-.035c-.366,.701-.63,1.493-.63,2.312c0,1.385 .745,2.508 1.687,3.425c-.712,0-1.4,.021-2.146,.021c-6.88,0-12.175,4.38-12.175,8.924c0,4.474 5.805,7.273 12.683,7.273c7.842,0 12.175-4.449 12.175-8.924c-.001-3.589-1.059-5.738-4.334-8.052m18.025-5.842h-4.823v-4.822h-3.882v4.822h-4.822v3.882h4.822v4.823h3.882v-4.823h4.823v-3.882z"/>
</svg>
